<svg xmlns="http://www.w3.org/2000/svg" aria-hidden="true" style="position:absolute;width:0;height:0;overflow:hidden"><defs>
<symbol id="icon-mail" viewBox="0 0 32 32"><path d="M8.96 2.56a6.41 6.41 0 0 0-6.4 6.4v14.08a6.41 6.41 0 0 0 6.4 6.4h14.08a6.41 6.41 0 0 0 6.4-6.4V8.96a6.41 6.41 0 0 0-6.4-6.4H8.96zm0 1.28h14.08a5.11 5.11 0 0 1 5.12 5.12v14.08a5.11 5.11 0 0 1-5.12 5.12H8.96a5.11 5.11 0 0 1-5.12-5.12V8.96a5.11 5.11 0 0 1 5.12-5.12zM8.32 9.6a1.93 1.93 0 0 0-1.92 1.92v8.96a1.93 1.93 0 0 0 1.92 1.92h15.36a1.93 1.93 0 0 0 1.92-1.92v-8.96a1.93 1.93 0 0 0-1.92-1.92H8.32zm.265 1.28h14.829l-5.7 5.691a2.423 2.423 0 0 1-3.439-.001l-5.69-5.69zm15.735.904v8.432L20.097 16l4.223-4.216zm-16.64.001L11.895 16 7.68 20.215v-8.43zm11.512 5.119 4.223 4.216H8.585l4.215-4.215.57.57a3.722 3.722 0 0 0 5.248.003l.575-.574z"/></symbol>
<symbol id="icon-coding" viewBox="0 0 32 32"><path d="M3.2 1.28A1.93 1.93 0 0 0 1.28 3.2v19.2a1.93 1.93 0 0 0 1.92 1.92h8.96v1.28H6.34a.633.633 0 0 0-.44.24l-3.2 3.84c-.155.192-.185.455-.078.677s.333.363.578.363h25.6c.245 0 .47-.14.578-.363s.078-.485-.078-.677l-3.2-3.84a.64.64 0 0 0-.5-.24h-5.76v-1.28h8.96a1.93 1.93 0 0 0 1.92-1.92V3.2a1.93 1.93 0 0 0-1.92-1.92zm0 1.28h25.6c.355 0 .64.285.64.64v19.2c0 .355-.285.64-.64.64H3.2a.638.638 0 0 1-.64-.64V3.2c0-.355.285-.64.64-.64zm.64 1.28v17.92h24.32V3.84zm1.28 1.28h21.76v15.36H5.12zm7.22 2.1-5.12 5.12-.44.46.44.46 5.12 5.12.92-.92L8.6 12.8l4.66-4.66zm7.32 0-.92.92 4.66 4.66-4.66 4.66.92.92 5.12-5.12.44-.46-.44-.46zm-6.22 17.1h5.12v2.56h-5.12zM6.7 26.88h5.46v1.28h7.68v-1.28h5.46l2.14 2.56H4.56z"/></symbol>
<symbol id="icon-location" viewBox="0 0 32 32"><path d="M16 0C10.477 0 6 4.477 6 10c0 10 10 22 10 22s10-12 10-22c0-5.523-4.477-10-10-10zm0 16a6 6 0 1 1 0-12 6 6 0 0 1 0 12z"/></symbol>
<symbol id="icon-github" viewBox="0 0 32 32"><path d="M16 .395c-8.836 0-16 7.163-16 16 0 7.069 4.585 13.067 10.942 15.182.8.148 1.094-.347 1.094-.77 0-.381-.015-1.642-.022-2.979-4.452.968-5.391-1.888-5.391-1.888-.728-1.849-1.776-2.341-1.776-2.341-1.452-.993.11-.973.11-.973 1.606.113 2.452 1.649 2.452 1.649 1.427 2.446 3.743 1.739 4.656 1.33.143-1.034.558-1.74 1.016-2.14-3.554-.404-7.29-1.777-7.29-7.907 0-1.747.625-3.174 1.649-4.295-.166-.403-.714-2.03.155-4.234 0 0 1.344-.43 4.401 1.64a15.353 15.353 0 0 1 4.005-.539c1.359.006 2.729.184 4.008.539 3.054-2.07 4.395-1.64 4.395-1.64.871 2.204.323 3.831.157 4.234 1.026 1.12 1.647 2.548 1.647 4.295 0 6.145-3.743 7.498-7.306 7.895.574.497 1.085 1.47 1.085 2.963 0 2.141-.019 3.864-.019 4.391 0 .426.288.925 1.099.768C27.421 29.457 32 23.462 32 16.395c0-8.837-7.164-16-16-16z"/></symbol>
<symbol id="icon-linkedin" viewBox="0 0 32 32"><path d="M29 0H3C1.35 0 0 1.35 0 3v26c0 1.65 1.35 3 3 3h26c1.65 0 3-1.35 3-3V3c0-1.65-1.35-3-3-3zM12 26H8V12h4v14zm-2-16c-1.106 0-2-.894-2-2s.894-2 2-2c1.106 0 2 .894 2 2s-.894 2-2 2zm16 16h-4v-8c0-1.106-.894-2-2-2s-2 .894-2 2v8h-4V12h4v2.481C18.825 13.35 20.087 12 21.5 12c2.488 0 4.5 2.238 4.5 5v9z"/></symbol>
<symbol id="icon-web_development" viewBox="0 0 40 32">
<path fill="#f2f2f2" style="fill: var(--color1, #f2f2f2)" d="M4.732 24.072c-0.002 0-0.005 0-0.008 0-0.093 0-0.169-0.076-0.169-0.169 0-0.049 0.021-0.093 0.054-0.124l0-0c0.004-0.017 0.007-0.029 0.012-0.046q-0.002-0.006-0.005-0.011c-0.071-0.164-0.231-0.277-0.417-0.277-0.188 0-0.349 0.114-0.418 0.277l-0.001 0.003c-0.137 0.329-0.311 0.659-0.354 1.007-0.006 0.049-0.010 0.106-0.010 0.163 0 0.106 0.012 0.208 0.035 0.307l-0.002-0.009c-0.308-0.655-0.488-1.423-0.489-2.232v-0c0-0.001 0-0.001 0-0.002 0-0.203 0.012-0.404 0.034-0.601l-0.002 0.024q0.027-0.236 0.074-0.469c0.185-0.885 0.562-1.662 1.087-2.315l-0.008 0.011c0.26-0.144 0.467-0.358 0.598-0.616l0.004-0.008c0.045-0.087 0.080-0.188 0.099-0.295l0.001-0.007c-0.029 0.004-0.059 0.006-0.088 0.008-0.009 0-0.019 0.001-0.028 0.001l-0.003 0c-0.002 0-0.005 0-0.008 0-0.092 0-0.167-0.075-0.167-0.167 0-0.040 0.014-0.077 0.038-0.106l-0 0q0.019-0.023 0.038-0.047c0.019-0.024 0.039-0.048 0.058-0.072 0.002-0.002 0.004-0.005 0.006-0.007l0-0c0.022-0.027 0.044-0.054 0.066-0.082-0.041-0.063-0.094-0.114-0.156-0.152l-0.002-0.001c-0.221-0.13-0.527-0.040-0.687 0.16s-0.191 0.481-0.135 0.732c0.059 0.227 0.151 0.426 0.272 0.604l-0.004-0.007c-0.012 0.015-0.024 0.030-0.037 0.046-0.207 0.263-0.397 0.56-0.557 0.874l-0.014 0.031c0.009-0.074 0.013-0.16 0.013-0.246 0-0.291-0.055-0.57-0.155-0.826l0.005 0.015c-0.13-0.314-0.374-0.578-0.588-0.849-0.258-0.326-0.786-0.184-0.832 0.229q-0.001 0.006-0.001 0.012 0.048 0.027 0.094 0.057c0.062 0.042 0.102 0.111 0.102 0.19 0 0.114-0.083 0.209-0.193 0.226l-0.001 0-0.005 0.001c0.013 0.128 0.034 0.244 0.064 0.356l-0.004-0.016c0.174 0.642 0.597 1.163 1.155 1.464l0.012 0.006c0.019 0.010 0.037 0.019 0.056 0.028-0.152 0.415-0.258 0.896-0.299 1.395l-0.001 0.020c-0.010 0.121-0.015 0.262-0.015 0.404 0 0.159 0.007 0.316 0.021 0.472l-0.001-0.020-0.001-0.010c-0.065-0.327-0.236-0.606-0.476-0.807l-0.002-0.002c-0.368-0.302-0.887-0.413-1.284-0.656-0.040-0.026-0.089-0.042-0.142-0.042-0.145 0-0.263 0.118-0.263 0.263 0 0.012 0.001 0.024 0.002 0.036l-0-0.001q0.001 0.005 0.002 0.011c0.069 0.028 0.125 0.056 0.18 0.087l-0.008-0.004q0.048 0.027 0.094 0.057c0.062 0.042 0.102 0.111 0.102 0.19 0 0.114-0.084 0.209-0.193 0.226l-0.001 0-0.005 0.001c-0.003 0-0.006 0.001-0.010 0.001 0.107 0.253 0.249 0.47 0.421 0.658l-0.002-0.002c0.426 0.457 1.031 0.743 1.702 0.747h0.001c0.098 0.418 0.226 0.783 0.39 1.129l-0.014-0.034h1.34c0.005-0.015 0.009-0.030 0.013-0.045-0.029 0.002-0.062 0.003-0.096 0.003-0.097 0-0.193-0.009-0.285-0.027l0.009 0.002c0.099-0.122 0.199-0.245 0.298-0.367 0.002-0.002 0.004-0.005 0.006-0.007l0-0c0.050-0.062 0.101-0.124 0.152-0.187l0-0c0-0.009 0-0.020 0-0.031 0-0.191-0.024-0.376-0.069-0.552l0.003 0.015z"></path>
<path fill="#ccc" style="fill: var(--color9, #ccc)" d="M20.537 25.286c0 0 0 0 0 0 0 0.031-0.025 0.055-0.055 0.055-0 0-0 0-0 0v0h-20.426c-0.031 0-0.056-0.025-0.056-0.056s0.025-0.056 0.056-0.056h20.426c0 0 0 0 0 0 0.031 0 0.055 0.025 0.055 0.055 0 0 0 0 0 0v0z"></path>
<path fill="#ffb6b6" style="fill: var(--color4, #ffb6b6)" d="M10.696 18.146c-0.038-0.009-0.081-0.015-0.126-0.015-0.288 0-0.523 0.225-0.54 0.508l-0 0.002-1.168 0.406 0.074 0.77 1.641-0.597c0.299-0.002 0.54-0.245 0.54-0.544 0-0.257-0.178-0.472-0.417-0.529l-0.004-0.001z"></path>
<path fill="#2f2e41" style="fill: var(--color5, #2f2e41)" d="M8.793 20.384c-0.464 0.324-1.282 0.489-2.396 0.482-0 0-0.001 0-0.001 0-0.129 0-0.245-0.055-0.327-0.143l-0-0c-0.298-0.31-0.286-1.018-0.284-1.087l-0.327-1.23c-0.007-0.019-0.188-0.524-0.004-0.876 0.079-0.147 0.217-0.254 0.38-0.292l0.004-0.001c0.691-0.183 1.34 1.665 1.422 1.909l0.969-0.165 0.669-0.028 0.681-0.376 0.383 0.917-0.949 0.693c-0.065 0.074-0.138 0.138-0.218 0.194l-0.004 0.003z"></path>
<path fill="#ffb6b6" style="fill: var(--color4, #ffb6b6)" d="M10.662 30.558l0.714 0.033 0.468-2.737-1.053-0.049-0.129 2.753z"></path>
<path fill="#2f2e41" style="fill: var(--color5, #2f2e41)" d="M10.502 30.197l1.131-0.015-0.023 0.483 1.038 0.791c0.073 0.056 0.119 0.143 0.119 0.24 0 0.167-0.135 0.302-0.302 0.302-0.005 0-0.010-0-0.015-0l0.001 0-1.343-0.063-0.209-0.489-0.113 0.474-0.506-0.024z"></path>
<path fill="#ffb6b6" style="fill: var(--color4, #ffb6b6)" d="M18.115 24.681l0.26-0.666-2.443-1.32-1.234 0.776 3.418 1.209z"></path>
<path fill="#2f2e41" style="fill: var(--color5, #2f2e41)" d="M17.722 24.717l0.348-1.077 0.451 0.176 1.082-0.73c0.047-0.032 0.106-0.052 0.169-0.052 0.167 0 0.302 0.135 0.302 0.302 0 0.040-0.008 0.077-0.021 0.112l0.001-0.002-0.489 1.253-0.53 0.042 0.413 0.259-0.185 0.472z"></path>
<path fill="#2f2e41" style="fill: var(--color5, #2f2e41)" d="M4.078 22.7s0.296 1.893 1.698 2.033 2.693-0.491 2.693-0.491l3.924-1.208s4.173 1.186 4.874 1.373c0 0 0.483-1.097 0.467-1.168-0.149-0.652-0.343-0.211-0.343-0.211l-4.437-1.962s-0.701-0.187-1.915 0.327-4.468 1.752-4.468 1.752z"></path>
<path fill="#2f2e41" style="fill: var(--color5, #2f2e41)" d="M4.094 22.584s-0.234 2.267 1.131 2.613c1.298 0.329 3.087-0.009 3.087-0.009l2.134-0.223s0.093 2.742 0.093 4.096c0.39 0.056 0.843 0.090 1.304 0.093l0.004 0c0.093 0 0.1-0.049 0.1-0.049l0.181-4.738c0.002-0.027 0.003-0.059 0.003-0.091 0-0.817-0.662-1.479-1.479-1.479-0.019 0-0.038 0-0.057 0.001l0.003-0q-0.151 0.006-0.317 0.021c-1.313 0.126-2.942-0.142-2.942-0.142z"></path>
<path fill="#2f2e41" style="fill: var(--color5, #2f2e41)" d="M7.88 19.295s0.554 3.351 0.18 3.619-0.888 0.269-0.888 0.269l-0.119-1.85z"></path>
<path fill="#2f2e41" style="fill: var(--color5, #2f2e41)" d="M6.956 15.179l0.741 0.704c0.419 0.399 0.679 0.96 0.679 1.583 0 0.371-0.092 0.72-0.255 1.026l0.006-0.012-0.354 0.675z"></path>
<path fill="#2b5e69" style="fill: var(--color3, #2b5e69)" d="M6.79 15.297l1.004 1.144c0.213 0.241 0.354 0.55 0.39 0.89l0.001 0.007c0.005 0.049 0.008 0.105 0.008 0.162 0 0.103-0.010 0.203-0.028 0.3l0.002-0.010-0.378 2.057-0.284 2.97s-2.196 0.665-2.42-0.362 1.707-7.158 1.707-7.158z"></path>
<path fill="#2f2e41" style="fill: var(--color5, #2f2e41)" d="M5.848 23.096c-1.443-0.241-1.797-0.288-1.819-0.297l-0.022-0.008 0.145-0.868 0.611-1.501c0.040-0.491 0.297-1.156 0.15-1.691-0.428-1.553 0.267-3.749 0.585-3.917l0.881-0.578 0.309 0.284 0.536 0.751c0.441 1.966 0.746 3.799 0.731 3.911l-0.272 1.925-0.321 0.738c-0.974 0.47-0.319 1.45-1.515 1.251z"></path>
<path fill="#e6e6e6" style="fill: var(--color7, #e6e6e6)" d="M8.461 21.684l2.266-0.606 0.509-0.121c0.006-0.002 0.014-0.002 0.021-0.002 0.018 0 0.035 0.005 0.050 0.014l-0-0 0.841 1.009c0.008 0.005 0.014 0.011 0.020 0.018l0 0c0.002 0.002 0.004 0.004 0.006 0.006l0 0c0.012 0.016 0.019 0.035 0.019 0.057 0 0.045-0.031 0.082-0.072 0.093l-0.001 0-3.381 0.778c-0.006 0.002-0.014 0.002-0.021 0.002-0.030 0-0.057-0.014-0.075-0.036l-0-0-0.034-0.044-0.187-0.901-0.013-0.117c-0.008-0.010-0.014-0.023-0.017-0.036l-0-0.001c-0.001-0.006-0.002-0.013-0.002-0.021 0-0.044 0.030-0.082 0.072-0.092l0.001-0z"></path>
<path fill="#000" style="fill: var(--color10, #000)" opacity="0.17" d="M8.609 22.852l0.034 0.045c0.018 0.022 0.044 0.036 0.075 0.036 0.007 0 0.015-0.001 0.021-0.002l-0.001 0 3.381-0.778c0.042-0.011 0.073-0.048 0.073-0.093 0-0.021-0.007-0.041-0.019-0.057l0 0c-0.002-0.002-0.004-0.005-0.006-0.006l-0-0z"></path>
<path fill="#e6e6e6" style="fill: var(--color7, #e6e6e6)" d="M11.217 20.951l-0.061-4.31c-0-0.003-0-0.006-0-0.010 0-0.024 0.008-0.046 0.022-0.063l-0 0 0.433-0.902 0.045-0.055c0.016-0.019 0.040-0.032 0.066-0.035l0-0 0.094-0.009c0.003-0 0.006-0 0.010-0 0.051 0 0.093 0.039 0.098 0.088l0 0 0.085 4.56 0 0 0.042 0.439 0.050 0.521 0 0.001 0.078 0.811c0 0.003 0.001 0.007 0.001 0.010 0 0.026-0.010 0.049-0.027 0.066l0-0c-0.018 0.020-0.044 0.032-0.072 0.032-0.001 0-0.001 0-0.002-0h0l-0.061-0.001c-0.025-0.001-0.047-0.010-0.064-0.025l0 0-0.034-0.031-0.016-0.015-0.654-1.011c-0.018-0.016-0.030-0.038-0.033-0.064l-0-0z"></path>
<path fill="#000" style="fill: var(--color10, #000)" opacity="0.17" d="M11.611 15.668l0.293 6.359 0.016 0.014 0.034 0.031c0.017 0.015 0.039 0.025 0.064 0.025l0.062 0.001c0.001 0 0.001 0 0.002 0 0.055 0 0.099-0.044 0.099-0.099 0-0.003-0-0.006-0-0.010l0 0-0.255-6.332c-0.005-0.050-0.047-0.089-0.098-0.089-0.003 0-0.007 0-0.010 0l0-0-0.094 0.009c-0.027 0.003-0.050 0.016-0.066 0.035l-0 0z"></path>
<path fill="#2b5e69" style="fill: var(--color3, #2b5e69)" d="M11.636 15.925l-0.396 0.978 0.049 2.925 0.429 0.62-0.082-4.523z"></path>
<path fill="#2f2e41" style="fill: var(--color5, #2f2e41)" d="M8.722 21.658c-0.036 0.011-0.062 0.043-0.062 0.082 0 0.008 0.001 0.016 0.003 0.024l-0-0.001 0.175 0.727 0.164-0.047-0.175-0.727c-0.010-0.036-0.043-0.062-0.082-0.062-0.008 0-0.016 0.001-0.024 0.003l0.001-0z"></path>
<path fill="#2f2e41" style="fill: var(--color5, #2f2e41)" d="M9.049 21.565c-0.036 0.011-0.062 0.043-0.062 0.082 0 0.008 0.001 0.016 0.003 0.024l-0-0.001 0.037 0.131 0.164-0.047-0.037-0.131c-0.010-0.036-0.043-0.062-0.082-0.062-0.008 0-0.016 0.001-0.024 0.003l0.001-0z"></path>
<path fill="#2f2e41" style="fill: var(--color5, #2f2e41)" d="M9.376 21.472c-0.036 0.011-0.062 0.043-0.062 0.082 0 0.008 0.001 0.016 0.003 0.024l-0-0.001 0.037 0.131 0.164-0.047-0.037-0.131c-0.010-0.036-0.043-0.062-0.082-0.062-0.008 0-0.016 0.001-0.024 0.003l0.001-0z"></path>
<path fill="#2f2e41" style="fill: var(--color5, #2f2e41)" d="M9.703 21.379c-0.036 0.011-0.062 0.043-0.062 0.082 0 0.008 0.001 0.016 0.003 0.024l-0-0.001 0.037 0.131 0.164-0.047-0.037-0.131c-0.010-0.036-0.043-0.062-0.082-0.062-0.008 0-0.016 0.001-0.024 0.003l0.001-0z"></path>
<path fill="#2f2e41" style="fill: var(--color5, #2f2e41)" d="M10.030 21.286c-0.036 0.011-0.062 0.043-0.062 0.082 0 0.008 0.001 0.016 0.003 0.024l-0-0.001 0.037 0.131 0.164-0.047-0.037-0.131c-0.010-0.036-0.043-0.062-0.082-0.062-0.008 0-0.016 0.001-0.024 0.003l0.001-0z"></path>
<path fill="#2f2e41" style="fill: var(--color5, #2f2e41)" d="M10.357 21.193c-0.036 0.011-0.062 0.043-0.062 0.082 0 0.008 0.001 0.016 0.003 0.024l-0-0.001 0.037 0.131 0.164-0.047-0.037-0.131c-0.010-0.036-0.043-0.062-0.082-0.062-0.008 0-0.016 0.001-0.024 0.003l0.001-0z"></path>
<path fill="#2f2e41" style="fill: var(--color5, #2f2e41)" d="M10.684 21.1c-0.036 0.011-0.062 0.043-0.062 0.082 0 0.008 0.001 0.016 0.003 0.024l-0-0.001 0.037 0.131 0.164-0.047-0.037-0.131c-0.010-0.036-0.043-0.062-0.082-0.062-0.008 0-0.016 0.001-0.024 0.003l0.001-0z"></path>
<path fill="#2f2e41" style="fill: var(--color5, #2f2e41)" d="M11.011 21.007c-0.036 0.011-0.062 0.043-0.062 0.082 0 0.008 0.001 0.016 0.003 0.024l-0-0.001 0.037 0.131 0.164-0.047-0.037-0.131c-0.010-0.036-0.043-0.062-0.082-0.062-0.008 0-0.016 0.001-0.024 0.003l0.001-0z"></path>
<path fill="#2f2e41" style="fill: var(--color5, #2f2e41)" d="M9.117 21.864c-0.036 0.011-0.062 0.043-0.062 0.082 0 0.008 0.001 0.016 0.003 0.024l-0-0.001 0.037 0.131 0.164-0.047-0.037-0.131c-0.010-0.036-0.043-0.062-0.082-0.062-0.008 0-0.016 0.001-0.024 0.003l0.001-0z"></path>
<path fill="#2f2e41" style="fill: var(--color5, #2f2e41)" d="M9.445 21.77c-0.036 0.011-0.062 0.043-0.062 0.082 0 0.008 0.001 0.016 0.003 0.024l-0-0.001 0.037 0.131 0.164-0.047-0.037-0.131c-0.010-0.036-0.043-0.062-0.082-0.062-0.008 0-0.016 0.001-0.024 0.003l0.001-0z"></path>
<path fill="#2f2e41" style="fill: var(--color5, #2f2e41)" d="M9.772 21.677c-0.036 0.011-0.062 0.043-0.062 0.082 0 0.008 0.001 0.016 0.003 0.024l-0-0.001 0.037 0.131 0.164-0.047-0.037-0.131c-0.010-0.036-0.043-0.062-0.082-0.062-0.008 0-0.016 0.001-0.024 0.003l0.001-0z"></path>
<path fill="#2f2e41" style="fill: var(--color5, #2f2e41)" d="M10.099 21.584c-0.036 0.010-0.062 0.043-0.062 0.082 0 0.008 0.001 0.016 0.003 0.024l-0-0.001 0.037 0.131 0.164-0.047-0.037-0.131c-0.011-0.036-0.043-0.062-0.082-0.062-0.008 0-0.016 0.001-0.024 0.003l0.001-0z"></path>
<path fill="#2f2e41" style="fill: var(--color5, #2f2e41)" d="M10.426 21.491c-0.036 0.011-0.062 0.043-0.062 0.082 0 0.008 0.001 0.016 0.003 0.024l-0-0.001 0.037 0.131 0.164-0.047-0.037-0.131c-0.010-0.036-0.043-0.062-0.082-0.062-0.008 0-0.016 0.001-0.024 0.003l0.001-0z"></path>
<path fill="#2f2e41" style="fill: var(--color5, #2f2e41)" d="M10.753 21.398c-0.036 0.011-0.062 0.043-0.062 0.082 0 0.008 0.001 0.016 0.003 0.024l-0-0.001 0.037 0.131 0.164-0.047-0.037-0.131c-0.010-0.036-0.043-0.062-0.082-0.062-0.008 0-0.016 0.001-0.024 0.003l0.001-0z"></path>
<path fill="#2f2e41" style="fill: var(--color5, #2f2e41)" d="M11.080 21.305c-0.036 0.011-0.062 0.043-0.062 0.082 0 0.008 0.001 0.016 0.003 0.024l-0-0.001 0.037 0.131 0.164-0.047-0.037-0.131c-0.010-0.036-0.043-0.062-0.082-0.062-0.008 0-0.016 0.001-0.024 0.003l0.001-0z"></path>
<path fill="#2f2e41" style="fill: var(--color5, #2f2e41)" d="M9.186 22.162c-0.036 0.011-0.062 0.043-0.062 0.082 0 0.008 0.001 0.016 0.003 0.024l-0-0.001 0.037 0.131 0.164-0.047-0.037-0.131c-0.010-0.036-0.043-0.062-0.082-0.062-0.008 0-0.016 0.001-0.024 0.003l0.001-0z"></path>
<path fill="#2f2e41" style="fill: var(--color5, #2f2e41)" d="M9.513 22.069c-0.036 0.011-0.062 0.043-0.062 0.082 0 0.008 0.001 0.016 0.003 0.024l-0-0.001 0.037 0.131 0.164-0.047-0.037-0.131c-0.010-0.036-0.043-0.062-0.082-0.062-0.008 0-0.016 0.001-0.024 0.003l0.001-0z"></path>
<path fill="#2f2e41" style="fill: var(--color5, #2f2e41)" d="M9.84 21.976c-0.036 0.011-0.062 0.043-0.062 0.082 0 0.008 0.001 0.016 0.003 0.024l-0-0.001 0.037 0.131 0.164-0.047-0.037-0.131c-0.010-0.036-0.043-0.062-0.082-0.062-0.008 0-0.016 0.001-0.024 0.003l0.001-0z"></path>
<path fill="#2f2e41" style="fill: var(--color5, #2f2e41)" d="M10.167 21.883c-0.036 0.011-0.062 0.043-0.062 0.082 0 0.008 0.001 0.016 0.003 0.024l-0-0.001 0.037 0.131 0.164-0.047-0.037-0.131c-0.010-0.036-0.043-0.062-0.082-0.062-0.008 0-0.016 0.001-0.024 0.003l0.001-0z"></path>
<path fill="#2f2e41" style="fill: var(--color5, #2f2e41)" d="M10.494 21.789c-0.036 0.011-0.062 0.043-0.062 0.082 0 0.008 0.001 0.016 0.003 0.024l-0-0.001 0.037 0.131 0.164-0.047-0.037-0.131c-0.010-0.036-0.043-0.062-0.082-0.062-0.008 0-0.016 0.001-0.024 0.003l0.001-0z"></path>
<path fill="#2f2e41" style="fill: var(--color5, #2f2e41)" d="M10.821 21.696c-0.036 0.011-0.062 0.043-0.062 0.082 0 0.008 0.001 0.016 0.003 0.024l-0-0.001 0.037 0.131 0.164-0.047-0.037-0.131c-0.010-0.036-0.043-0.062-0.082-0.062-0.008 0-0.016 0.001-0.024 0.003l0.001-0z"></path>
<path fill="#2f2e41" style="fill: var(--color5, #2f2e41)" d="M11.148 21.603c-0.036 0.011-0.062 0.043-0.062 0.082 0 0.008 0.001 0.016 0.003 0.024l-0-0.001 0.037 0.131 0.164-0.047-0.037-0.131c-0.010-0.036-0.043-0.062-0.082-0.062-0.008 0-0.016 0.001-0.024 0.003l0.001-0z"></path>
<path fill="#ffb6b6" style="fill: var(--color4, #ffb6b6)" d="M10.188 21.039c-0.098-0.146-0.263-0.241-0.45-0.241-0.145 0-0.277 0.057-0.375 0.151l0-0-1.132-0.496-0.47 0.615 1.609 0.679c0.096 0.088 0.225 0.142 0.367 0.142 0.3 0 0.544-0.244 0.544-0.544 0-0.114-0.035-0.219-0.094-0.306l0.001 0.002z"></path>
<path fill="#2f2e41" style="fill: var(--color5, #2f2e41)" d="M7.271 21.384c-0.56-0.079-1.273-0.514-2.083-1.277-0.088-0.082-0.143-0.198-0.143-0.327 0-0 0-0.001 0-0.001v0c-0.007-0.43 0.483-0.941 0.531-0.99l0.598-1.124c0.008-0.019 0.219-0.512 0.593-0.645 0.056-0.020 0.122-0.032 0.19-0.032 0.107 0 0.208 0.029 0.294 0.080l-0.003-0.001c0.631 0.335-0.151 2.132-0.256 2.367l0.823 0.538 0.509 0.435 0.755 0.188-0.343 0.933-1.167-0.137c-0.036 0.004-0.078 0.006-0.12 0.006-0.062 0-0.123-0.005-0.182-0.014l0.007 0.001z"></path>
<path fill="#ffb6b6" style="fill: var(--color4, #ffb6b6)" d="M7.15 11.287c0.771 0.092 1.32 0.806 1.225 1.595s-0.796 1.353-1.568 1.26c-0.771-0.092-1.32-0.806-1.225-1.595s0.796-1.353 1.568-1.26z"></path>
<path fill="#2f2e41" style="fill: var(--color5, #2f2e41)" d="M3.317 11.648c0.271-0.248 0.427-0.602 0.655-0.894s0.591-0.533 0.931-0.418c0.234 0.079 0.395 0.314 0.461 0.562s0.052 0.511 0.038 0.768c0.057-0.526 0.464-0.994 0.961-1.104s1.045 0.145 1.294 0.603c0.119-0.087 0.269-0.14 0.431-0.14 0.213 0 0.404 0.090 0.538 0.235l0 0c0.239 0.272 0.244 0.734 0.010 1.016s-0.674 0.345-0.967 0.138l-0.123 0.089c0.036 0.225-0.115 0.468-0.328 0.526-0.173 0.047-0.404 0.008-0.486 0.173-0.058 0.116 0.008 0.254 0.082 0.357s0.165 0.211 0.16 0.341c-0.008 0.196-0.224 0.307-0.411 0.326-0.451 0.046-0.913-0.216-1.12-0.633q-0.006-0.012-0.013-0.024c-0.155-0.252-0.247-0.557-0.247-0.884 0-0.161 0.022-0.317 0.064-0.465l-0.003 0.012c0.025-0.088 0.019-0.156-0.041-0.185-0.256-0.124-1.026-0.021-1.274 0.126s-0.456 0.355-0.696 0.514c-0.24 0.159-0.535 0.268-0.806 0.185-0.217-0.067-0.386-0.25-0.49-0.46s-0.149-0.444-0.188-0.677c0.456 0.342 1.141 0.304 1.567-0.087z"></path>
<path fill="#cacaca" style="fill: var(--color11, #cacaca)" d="M40.306 1.611h-21.22c-0.046-0.001-0.083-0.038-0.083-0.084s0.037-0.083 0.082-0.084h21.22c0.046 0.001 0.083 0.038 0.083 0.084s-0.037 0.083-0.083 0.084h-0z"></path>
<path fill="#3f3d56" style="fill: var(--color6, #3f3d56)" d="M21.025 0.506c0 0.279-0.221 0.506-0.495 0.506s-0.495-0.226-0.495-0.506c0-0.279 0.221-0.506 0.495-0.506s0.495 0.226 0.495 0.506z"></path>
<path fill="#3f3d56" style="fill: var(--color6, #3f3d56)" d="M22.734 0.506c0 0.279-0.221 0.506-0.495 0.506s-0.495-0.226-0.495-0.506c0-0.279 0.221-0.506 0.495-0.506s0.495 0.226 0.495 0.506z"></path>
<path fill="#3f3d56" style="fill: var(--color6, #3f3d56)" d="M24.442 0.506c0 0.279-0.221 0.506-0.495 0.506s-0.495-0.226-0.495-0.506c0-0.279 0.221-0.506 0.495-0.506s0.495 0.226 0.495 0.506z"></path>
<path fill="#3f3d56" style="fill: var(--color6, #3f3d56)" d="M39.278 0.125h-1.214c-0.050 0.001-0.090 0.042-0.090 0.092s0.040 0.091 0.090 0.092h1.214c0.050-0.001 0.090-0.042 0.090-0.092s-0.040-0.091-0.090-0.092h-0z"></path>
<path fill="#3f3d56" style="fill: var(--color6, #3f3d56)" d="M39.278 0.47h-1.214c-0.050 0.001-0.090 0.042-0.090 0.092s0.040 0.091 0.090 0.092h1.214c0.050-0.001 0.090-0.042 0.090-0.092s-0.040-0.091-0.090-0.092h-0z"></path>
<path fill="#3f3d56" style="fill: var(--color6, #3f3d56)" d="M39.278 0.815h-1.214c-0.050 0.001-0.090 0.042-0.090 0.092s0.040 0.091 0.090 0.092h1.214c0.050-0.001 0.090-0.042 0.090-0.092s-0.040-0.091-0.090-0.092h-0z"></path>
<path fill="#2f2e41" style="fill: var(--color5, #2f2e41)" d="M3.104 21.006l0.001-0.001-0.001 0.002z"></path>
<path fill="#e6e7e8" style="fill: var(--color12, #e6e7e8)" d="M32.866 4.288c0 0.338-0.274 0.611-0.611 0.611s-0.611-0.274-0.611-0.611c0-0.338 0.274-0.611 0.611-0.611s0.611 0.274 0.611 0.611z"></path>
<path fill="#e6e7e8" style="fill: var(--color12, #e6e7e8)" d="M37.407 5.642h-5.582c-0 0-0 0-0 0-0.101 0-0.182-0.082-0.182-0.182s0.081-0.182 0.182-0.182c0 0 0 0 0 0h5.582c0 0 0 0 0 0 0.101 0 0.182 0.082 0.182 0.182s-0.081 0.182-0.182 0.182c-0 0-0 0-0 0h0z"></path>
<path fill="#e6e7e8" style="fill: var(--color12, #e6e7e8)" d="M33.212 6.361h-1.387c-0.101 0-0.182-0.082-0.182-0.182s0.082-0.182 0.182-0.182v0h1.387c0.101 0 0.182 0.082 0.182 0.182s-0.082 0.182-0.182 0.182v0z"></path>
<path fill="#e6e7e8" style="fill: var(--color12, #e6e7e8)" d="M32.866 13.831c0 0.338-0.274 0.611-0.611 0.611s-0.611-0.274-0.611-0.611c0-0.338 0.274-0.611 0.611-0.611s0.611 0.274 0.611 0.611z"></path>
<path fill="#e6e7e8" style="fill: var(--color12, #e6e7e8)" d="M37.407 15.185h-5.582c-0.101 0-0.182-0.082-0.182-0.182s0.081-0.182 0.182-0.182h5.582c0.101 0 0.182 0.082 0.182 0.182s-0.081 0.182-0.182 0.182v0z"></path>
<path fill="#e6e7e8" style="fill: var(--color12, #e6e7e8)" d="M33.212 15.904h-1.387c-0.101 0-0.182-0.082-0.182-0.182s0.082-0.182 0.182-0.182v0h1.387c0.101 0 0.182 0.082 0.182 0.182s-0.082 0.182-0.182 0.182v0z"></path>
<path fill="#e6e7e8" style="fill: var(--color12, #e6e7e8)" d="M23.026 12.383c0 0.338-0.274 0.611-0.611 0.611s-0.611-0.274-0.611-0.611c0-0.338 0.274-0.611 0.611-0.611s0.611 0.274 0.611 0.611z"></path>
<path fill="#e6e7e8" style="fill: var(--color12, #e6e7e8)" d="M27.567 13.736h-5.582c-0.101 0-0.182-0.082-0.182-0.182s0.081-0.182 0.182-0.182h5.582c0.101 0 0.182 0.082 0.182 0.182s-0.081 0.182-0.182 0.182v0z"></path>
<path fill="#e6e7e8" style="fill: var(--color12, #e6e7e8)" d="M23.371 14.456h-1.387c-0.101 0-0.182-0.082-0.182-0.182s0.082-0.182 0.182-0.182v0h1.387c0.101 0 0.182 0.082 0.182 0.182s-0.082 0.182-0.182 0.182v0z"></path>
<path fill="#e6e7e8" style="fill: var(--color12, #e6e7e8)" d="M32.866 8.7c0 0.338-0.274 0.611-0.611 0.611s-0.611-0.274-0.611-0.611c0-0.338 0.274-0.611 0.611-0.611s0.611 0.274 0.611 0.611z"></path>
<path fill="#e6e7e8" style="fill: var(--color12, #e6e7e8)" d="M37.407 10.053h-5.582c-0.101 0-0.182-0.082-0.182-0.182s0.081-0.182 0.182-0.182h5.582c0.101 0 0.182 0.082 0.182 0.182s-0.081 0.182-0.182 0.182v0z"></path>
<path fill="#e6e7e8" style="fill: var(--color12, #e6e7e8)" d="M35.18 10.773h-3.355c-0.101 0-0.182-0.082-0.182-0.182s0.082-0.182 0.182-0.182v0h3.355c0.101 0 0.182 0.082 0.182 0.182s-0.082 0.182-0.182 0.182v0z"></path>
<path fill="#e6e7e8" style="fill: var(--color12, #e6e7e8)" d="M34.245 11.492h-2.42c-0.101 0-0.182-0.082-0.182-0.182s0.082-0.182 0.182-0.182v0h2.42c0.101 0 0.182 0.082 0.182 0.182s-0.082 0.182-0.182 0.182v0z"></path>
<path fill="#2b5e69" style="fill: var(--color3, #2b5e69)" d="M26.68 4.726v6.419c-0 0.093-0.076 0.169-0.169 0.169h-3.382c-0.367-0.341-0.671-0.744-0.895-1.194l-0.011-0.024c-0.015-0.030-0.029-0.059-0.042-0.090-0.194-0.411-0.325-0.889-0.365-1.393l-0.001-0.014c-0.003-0.030-0.005-0.060-0.006-0.090-0.005-0.077-0.007-0.156-0.007-0.234 0-0.002 0-0.004 0-0.005 0-0.549 0.107-1.073 0.301-1.552l-0.010 0.028c0.012-0.030 0.024-0.060 0.036-0.090 0.266-0.615 0.654-1.133 1.136-1.543l0.006-0.005q0.044-0.038 0.090-0.073l0.007-0.006c0.369-0.294 0.843-0.473 1.358-0.473 0.003 0 0.005 0 0.008 0h1.777c0.093 0 0.169 0.076 0.169 0.169 0 0 0 0 0 0v0z"></path>
<path fill="#000" style="fill: var(--color10, #000)" opacity="0.2" d="M26.689 6.746v-0.090h-1.508v-2.099h-0.090v2.099h-1.729v-1.621q-0.045 0.036-0.090 0.073v1.548h-1.142c-0.013 0.030-0.025 0.060-0.036 0.090h1.178v1.764h-1.463c0.001 0.030 0.003 0.060 0.006 0.090h1.457v1.407h-1.092c0.013 0.030 0.027 0.060 0.042 0.090h1.049v1.183h0.090v-1.183h1.729v1.183h0.090v-1.183h1.508v-0.090h-1.508c0-0 0-0 0-0 0-0.777 0.63-1.407 1.407-1.407 0 0 0 0 0 0h0.101v-0.090h-1.508v-1.764zM25.091 10.007h-1.729v-1.407h1.729zM25.091 8.51h-1.729v-0.035c0-0.955 0.774-1.729 1.729-1.729 0 0 0 0 0 0v0z"></path>
<path fill="#2f2e41" style="fill: var(--color5, #2f2e41)" d="M26.519 10.030c-0.002 0-0.005 0-0.008 0-0.098 0-0.177-0.079-0.177-0.177 0-0.051 0.022-0.097 0.057-0.13l0-0c0.004-0.018 0.008-0.030 0.012-0.048q-0.002-0.006-0.005-0.012c-0.163-0.388-1.2 0.693-1.245 1.057-0.007 0.051-0.010 0.111-0.010 0.171 0 0.111 0.013 0.218 0.037 0.321l-0.002-0.009c-0.322-0.685-0.51-1.488-0.512-2.335v-0c0-0.001 0-0.001 0-0.002 0-0.213 0.012-0.422 0.036-0.629l-0.002 0.025q0.028-0.247 0.077-0.491c0.193-0.926 0.588-1.739 1.137-2.422l-0.009 0.011c0.321 0.018 0.602-0.031 0.63-0.653 0.005-0.111 0.087-0.207 0.105-0.316-0.031 0.004-0.062 0.007-0.092 0.009-0.010 0-0.020 0.001-0.029 0.002l-0.004 0c-0.002 0-0.005 0-0.008 0-0.097 0-0.175-0.078-0.175-0.175 0-0.042 0.015-0.080 0.039-0.111l-0 0q0.020-0.024 0.040-0.049c0.020-0.025 0.041-0.050 0.061-0.075 0.002-0.002 0.004-0.005 0.006-0.007l0-0c0.023-0.029 0.046-0.057 0.069-0.085-0.043-0.066-0.098-0.12-0.164-0.159l-0.002-0.001c-0.232-0.136-0.551-0.042-0.719 0.168s-0.2 0.503-0.141 0.765c0.062 0.238 0.159 0.446 0.285 0.632l-0.005-0.007c-0.013 0.016-0.026 0.032-0.038 0.048-0.216 0.276-0.415 0.586-0.583 0.914l-0.015 0.032c0.047-0.371-0.533-1.71-0.758-1.994-0.27-0.341-0.823-0.192-0.87 0.24q-0.001 0.006-0.001 0.013 0.050 0.028 0.098 0.060c0.065 0.044 0.106 0.116 0.106 0.199 0 0.119-0.087 0.218-0.202 0.237l-0.001 0-0.005 0.001c-0.446 0.637 0.985 2.296 1.343 1.924-0.159 0.434-0.27 0.937-0.313 1.459l-0.001 0.021c-0.010 0.127-0.016 0.274-0.016 0.423 0 0.166 0.007 0.331 0.022 0.493l-0.002-0.021-0.002-0.011c-0.080-0.648-1.445-1.613-1.843-1.532-0.23 0.046-0.456 0.036-0.421 0.267q0.001 0.006 0.002 0.011c0.072 0.029 0.131 0.059 0.188 0.091l-0.008-0.004q0.050 0.028 0.098 0.060c0.065 0.044 0.106 0.116 0.106 0.199 0 0.119-0.087 0.218-0.202 0.236l-0.001 0-0.005 0.001c-0.004 0.001-0.007 0.001-0.010 0.002-0.203 0.699 1.304 1.827 2.22 1.468h0c0.102 0.437 0.237 0.82 0.408 1.181l-0.015-0.036h1.402c0.005-0.016 0.010-0.032 0.014-0.047-0.030 0.002-0.065 0.003-0.1 0.003-0.102 0-0.201-0.010-0.298-0.028l0.010 0.002c0.104-0.128 0.208-0.256 0.312-0.384 0.002-0.002 0.004-0.005 0.006-0.007l0-0c0.053-0.065 0.106-0.13 0.159-0.195l0-0c0-0.010 0-0.021 0-0.033 0-0.199-0.025-0.393-0.072-0.578l0.003 0.016zM24.913 6.871l0.001-0.001-0.001 0.002zM24.603 9.671l-0.012-0.027c0-0.020 0-0.039 0-0.059 0-0.006-0.001-0.011-0.001-0.017 0.005 0.035 0.009 0.069 0.014 0.104z"></path>
</symbol>
<symbol id="icon-goals" viewBox="0 0 43 32">
<path fill="#f2f2f2" style="fill: var(--color1, #f2f2f2)" d="M38.952 28.526l0.064-1.439c0.627-0.342 1.373-0.545 2.166-0.549h0.001c-1.041 0.851-0.911 2.492-1.617 3.636-0.447 0.704-1.183 1.19-2.037 1.29l-0.013 0.001-0.871 0.533c-0.047-0.249-0.074-0.535-0.074-0.827 0-1.13 0.4-2.167 1.067-2.977l-0.006 0.008c0.244-0.291 0.517-0.545 0.818-0.764l0.013-0.009c0.209 0.55 0.487 1.094 0.487 1.094z"></path>
<path fill="#a0616a" style="fill: var(--color2, #a0616a)" d="M9.044 15.735c-0.107-0.098-0.174-0.238-0.174-0.394 0-0.172 0.081-0.324 0.207-0.422l0.001-0.001-0.597-1.798 0.951 0.255 0.421 1.668c0.056 0.084 0.090 0.187 0.090 0.297 0 0.296-0.24 0.536-0.536 0.536-0.141 0-0.269-0.054-0.364-0.143l0 0z"></path>
<path fill="#2b5e69" style="fill: var(--color3, #2b5e69)" d="M10.767 5.967c0.158 0.090 1.091-0.134 1.273-0.070-0.101 0.614 0.446 0.383-0.148 1.19s-1.789 3.223-2.060 4.127-0.003 2.177-0.043 2.605c-0.009 0.105-0.014 0.227-0.014 0.351 0 0.139 0.006 0.276 0.019 0.412l-0.001-0.017c-0.321-0.004-0.637 0.062-0.962 0.020-0.347-0.983-0.581-2.381-0.739-3.154s-0.164-0.446-0.092-0.833 0.090-0.106 0.014-0.475 0.233-0.834 0.518-1.099c0.123-0.354 0.282-0.684 0.404-1.034 0.893-0.779 0.952-1.229 1.831-2.021z"></path>
<path fill="#ffb6b6" style="fill: var(--color4, #ffb6b6)" d="M36.707 31.003h-0.789l-0.375-3.043h1.164l-0 3.043z"></path>
<path fill="#2f2e41" style="fill: var(--color5, #2f2e41)" d="M36.908 31.768l-2.543-0v-0.032c0-0.547 0.443-0.99 0.99-0.99h0l0.465-0.352 0.867 0.353h0.222z"></path>
<path fill="#ffb6b6" style="fill: var(--color4, #ffb6b6)" d="M33.042 31.003h-0.789l-0.375-3.043h1.164l-0 3.043z"></path>
<path fill="#2f2e41" style="fill: var(--color5, #2f2e41)" d="M33.244 31.768l-2.543-0v-0.032c0-0.547 0.443-0.99 0.99-0.99h0l0.465-0.352 0.867 0.353h0.222z"></path>
<path fill="#2f2e41" style="fill: var(--color5, #2f2e41)" d="M32.701 14.369l5.131 0.128c0.974 0.529 0.989 1.675 0.67 3.035 0 0 0.108 0.808-0.108 1.024s-0.323 0.216-0.216 0.593-0.462 0.993-0.393 1.063 0.231 0.446 0.231 0.446l-0.539 3.072s-0.377 5.335-0.485 5.443-0.216 0-0.108 0.269 0.216 0.162 0.108 0.269c-0.091 0.098-0.179 0.203-0.262 0.313l-0.007 0.010h-1.303s-0.098-0.539-0.098-0.593-0.108-0.377-0.108-0.431 0.095-0.149 0.095-0.149c0.030-0.097 0.054-0.211 0.066-0.328l0.001-0.008c0-0.108 0.323-4.258 0.323-4.258l-0.647-5.389-1.563 5.281s0 4.635-0.108 4.743-0.108 0.054-0.054 0.269 0.269 0.162 0.108 0.323-0.216-0.108-0.162 0.162l0.054 0.269-1.617 0.023s-0.216-0.454-0.108-0.616 0.101-0.118-0.030-0.382-0.185-0.318-0.131-0.372 0.054-0.341 0.054-0.341l0.269-5.157s0.054-5.443 0.054-5.605c0-0.008 0.001-0.017 0.001-0.026 0-0.078-0.017-0.153-0.047-0.22l0.001 0.003v-0.219l0.206-0.778z"></path>
<path fill="#ffb6b6" style="fill: var(--color4, #ffb6b6)" d="M37.377 2.106c0 0.88-0.714 1.594-1.594 1.594s-1.594-0.714-1.594-1.594c0-0.88 0.714-1.594 1.594-1.594s1.594 0.714 1.594 1.594z"></path>
<path fill="#3f3d56" style="fill: var(--color6, #3f3d56)" d="M34.986 4.754c-0.343 0.204-0.549 0.579-0.667 0.961-0.206 0.641-0.346 1.383-0.39 2.152l-0.001 0.025-0.125 2.211-1.543 4.708c1.337 1.131 6.363 0.257 6.363 0.257s0.154-0.051 0-0.206-0.304-0.018-0.15-0.172 0.048 0.018-0.004-0.137 0-0.051 0.051-0.103-0.398-0.514-0.398-0.514l0.411-2.702 0.514-5.451c-0.617-0.771-1.858-1.226-1.858-1.226l-0.321-0.577-1.603 0.128z"></path>
<path fill="#2f2e41" style="fill: var(--color5, #2f2e41)" d="M34.767 1.171c0.065 0.001 0.128 0.009 0.188 0.025l-0.005-0.001c0.101 0.026 0.223 0.047 0.347 0.059l0.011 0.001c0.762 0.074 1.369 0.654 1.483 1.397l0.001 0.009c0.093-0.081 0.303-0.229 0.476-0.091v0c0.003 0.002 0.004 0.003 0.010 0 0.115-0.054 0.318-0.724 0.325-1.314 0.003-0.313-0.046-0.713-0.299-0.84l-0.013-0.007-0.004-0.015c-0.017-0.070-0.206-0.191-0.534-0.284-0.597-0.17-1.469-0.195-1.97 0.293-0.038 0.164-0.179 0.209-0.303 0.249-0.138 0.044-0.257 0.082-0.276 0.251-0.007 0.101-0.011 0.219-0.011 0.337 0 0.136 0.005 0.271 0.015 0.404l-0.001-0.018c0.049-0.151 0.141-0.277 0.261-0.367l0.002-0.001c0.081-0.056 0.182-0.089 0.291-0.089 0.003 0 0.006 0 0.008 0h-0z"></path>
<path fill="#ffb6b6" style="fill: var(--color4, #ffb6b6)" d="M31.8 9.979l2.604-1.668-1.312-1.744-1.295 1.593-4.035 0.248c-0.139-0.137-0.33-0.222-0.541-0.222-0.425 0-0.769 0.344-0.769 0.769s0.344 0.769 0.769 0.769c0.19 0 0.364-0.069 0.499-0.184l-0.001 0.001z"></path>
<path fill="#3f3d56" style="fill: var(--color6, #3f3d56)" d="M36.821 5.983c0.151 0.915-2.703 2.661-2.703 2.661-0-0.215-1.704 1.406-1.78 1.228-0.219-0.506-0.372-1.705-0.678-1.896-0.175-0.11 1.052-1.14 1.052-1.14s0.642-0.647 1.484-1.462c0.356-0.358 0.849-0.579 1.393-0.579 0.151 0 0.299 0.017 0.44 0.050l-0.013-0.003s0.653 0.227 0.805 1.142z"></path>
<path fill="#f2f2f2" style="fill: var(--color1, #f2f2f2)" d="M33.92 16.485c0 0.003 0 0.006 0 0.010 0 1.026-0.178 2.012-0.504 2.926l0.019-0.061c-0.015 0.043-0.030 0.085-0.046 0.128-0.684 1.823-1.9 3.315-3.458 4.325l-0.034 0.021c-0.11 0.071-0.221 0.138-0.334 0.203-1.21 0.714-2.663 1.145-4.213 1.168l-0.007 0c-0.049 0.001-0.098 0.001-0.146 0.001-0.063 0-0.125-0.001-0.187-0.002-1.56-0.032-3.011-0.471-4.26-1.214l0.040 0.022q-0.169-0.099-0.334-0.206c-2.411-1.58-3.982-4.27-3.982-7.326 0-1.379 0.32-2.684 0.889-3.843l-0.023 0.051c0.021-0.043 0.042-0.085 0.064-0.128 1.469-2.869 4.405-4.799 7.792-4.799s6.324 1.93 7.77 4.75l0.023 0.049c0.022 0.043 0.043 0.085 0.063 0.128 0.547 1.105 0.866 2.406 0.866 3.782 0 0.005 0 0.009 0 0.014v-0.001z"></path>
<path fill="#e6e6e6" style="fill: var(--color7, #e6e6e6)" d="M31.221 19.361v0.128h0.781v-0.128zM29.658 19.361v0.128h0.781v-0.128zM28.096 19.361v0.128h0.781v-0.128zM26.534 19.361v0.128h0.781v-0.128zM24.971 19.361v0.128h0.781v-0.128zM23.409 19.361v0.128h0.781v-0.128zM21.847 19.361v0.128h0.781v-0.128zM20.285 19.361v0.128h0.781v-0.128zM18.723 19.361v0.128h0.781v-0.128zM17.16 19.361v0.128h0.781v-0.128zM33.435 19.361h-0.652v0.128h0.606z"></path>
<path fill="#e6e6e6" style="fill: var(--color7, #e6e6e6)" d="M32.783 18.463v0.128h0.781v-0.128zM31.221 18.463v0.128h0.781v-0.128zM29.658 18.463v0.128h0.781v-0.128zM28.096 18.463v0.128h0.781v-0.128zM26.534 18.463v0.128h0.781v-0.128zM24.971 18.463v0.128h0.781v-0.128zM23.409 18.463v0.128h0.781v-0.128zM21.847 18.463v0.128h0.781v-0.128zM20.285 18.463v0.128h0.781v-0.128zM18.723 18.463v0.128h0.781v-0.128zM17.16 18.463v0.128h0.781v-0.128z"></path>
<path fill="#e6e6e6" style="fill: var(--color7, #e6e6e6)" d="M32.783 16.603v0.128h0.781v-0.128zM31.221 16.603v0.128h0.781v-0.128zM29.658 16.603v0.128h0.781v-0.128zM28.096 16.603v0.128h0.781v-0.128zM26.534 16.603v0.128h0.781v-0.128zM24.971 16.603v0.128h0.781v-0.128zM23.409 16.603v0.128h0.781v-0.128zM21.847 16.603v0.128h0.781v-0.128zM20.285 16.603v0.128h0.781v-0.128zM18.723 16.603v0.128h0.781v-0.128zM17.16 16.603v0.128h0.781v-0.128z"></path>
<path fill="#e6e6e6" style="fill: var(--color7, #e6e6e6)" d="M32.783 15.32v0.128h0.781v-0.128zM31.221 15.32v0.128h0.781v-0.128zM29.658 15.32v0.128h0.781v-0.128zM28.096 15.32v0.128h0.781v-0.128zM26.534 15.32v0.128h0.781v-0.128zM24.971 15.32v0.128h0.781v-0.128zM23.409 15.32v0.128h0.781v-0.128zM21.847 15.32v0.128h0.781v-0.128zM20.285 15.32v0.128h0.781v-0.128zM18.723 15.32v0.128h0.781v-0.128zM17.16 15.32v0.128h0.781v-0.128z"></path>
<path fill="#e6e6e6" style="fill: var(--color7, #e6e6e6)" d="M32.99 12.562h-0.206v0.128h0.27c-0.021-0.043-0.042-0.085-0.063-0.128zM31.221 12.562v0.128h0.781v-0.128zM29.658 12.562v0.128h0.781v-0.128zM28.096 12.562v0.128h0.781v-0.128zM26.534 12.562v0.128h0.781v-0.128zM24.971 12.562v0.128h0.781v-0.128zM23.409 12.562v0.128h0.781v-0.128zM21.847 12.562v0.128h0.781v-0.128zM20.285 12.562v0.128h0.781v-0.128zM18.723 12.562v0.128h0.781v-0.128zM17.405 12.562c-0.022 0.043-0.043 0.085-0.064 0.128h0.6v-0.128z"></path>
<path fill="#3f3d56" style="fill: var(--color6, #3f3d56)" d="M29.897 12.995v10.84c-0.11 0.071-0.221 0.138-0.334 0.203v-11.043z"></path>
<path fill="#3f3d56" style="fill: var(--color6, #3f3d56)" d="M25.343 16.586v8.62c-0.049 0.001-0.098 0.001-0.146 0.001-0.063 0-0.125-0.001-0.187-0.002v-8.62z"></path>
<path fill="#3f3d56" style="fill: var(--color6, #3f3d56)" d="M20.79 12.995v11.020q-0.169-0.099-0.334-0.206v-10.814z"></path>
<path fill="#f2f2f2" style="fill: var(--color1, #f2f2f2)" d="M4.448 27.749l-0.127-1.769c-0.746-0.381-1.626-0.604-2.559-0.604-0.045 0-0.090 0.001-0.135 0.002l0.007-0c1.31 1.013 1.205 3.037 2.113 4.423 0.572 0.849 1.494 1.425 2.554 1.52l0.013 0.001 1.091 0.627c0.041-0.259 0.065-0.558 0.065-0.863 0-1.448-0.533-2.771-1.414-3.784l0.006 0.007c-0.308-0.348-0.653-0.652-1.031-0.911l-0.019-0.012c-0.238 0.684-0.563 1.364-0.563 1.364z"></path>
<path fill="#2b5e69" style="fill: var(--color3, #2b5e69)" d="M30.905 12.637c0 0.673-0.546 1.219-1.219 1.219s-1.219-0.546-1.219-1.219c0-0.673 0.546-1.219 1.219-1.219s1.219 0.546 1.219 1.219z"></path>
<path fill="#fff" style="fill: var(--color8, #fff)" d="M30.312 12.13c-0.018-0.017-0.042-0.027-0.068-0.027s-0.050 0.010-0.068 0.027l0-0c-0.26 0.208-0.487 0.44-0.684 0.697l-0.007 0.009q-0.074-0.143-0.148-0.286c-0.057-0.11-0.223-0.013-0.166 0.097q0.108 0.209 0.216 0.418c0.017 0.028 0.048 0.047 0.083 0.047s0.066-0.018 0.083-0.046l0-0c0.219-0.305 0.469-0.569 0.751-0.794l0.008-0.006c0.017-0.017 0.028-0.041 0.028-0.068s-0.011-0.051-0.028-0.068v0z"></path>
<path fill="#2b5e69" style="fill: var(--color3, #2b5e69)" d="M26.416 16.229c0 0.673-0.546 1.219-1.219 1.219s-1.219-0.546-1.219-1.219c0-0.673 0.546-1.219 1.219-1.219s1.219 0.546 1.219 1.219z"></path>
<path fill="#fff" style="fill: var(--color8, #fff)" d="M25.823 15.721c-0.018-0.017-0.042-0.027-0.068-0.027s-0.050 0.010-0.068 0.027l0-0c-0.26 0.208-0.487 0.44-0.684 0.697l-0.007 0.009q-0.074-0.143-0.148-0.286c-0.057-0.11-0.223-0.013-0.166 0.097q0.108 0.209 0.216 0.418c0.017 0.028 0.048 0.047 0.083 0.047s0.066-0.018 0.083-0.046l0-0c0.219-0.305 0.469-0.569 0.751-0.794l0.008-0.006c0.017-0.017 0.028-0.041 0.028-0.068s-0.011-0.051-0.028-0.068v0z"></path>
<path fill="#2b5e69" style="fill: var(--color3, #2b5e69)" d="M21.862 12.894c0 0.673-0.546 1.219-1.219 1.219s-1.219-0.546-1.219-1.219c0-0.673 0.546-1.219 1.219-1.219s1.219 0.546 1.219 1.219z"></path>
<path fill="#fff" style="fill: var(--color8, #fff)" d="M21.269 12.386c-0.018-0.017-0.042-0.027-0.068-0.027s-0.050 0.010-0.068 0.027l0-0c-0.26 0.208-0.487 0.44-0.684 0.697l-0.007 0.009q-0.074-0.143-0.148-0.286c-0.057-0.11-0.223-0.013-0.166 0.097q0.108 0.209 0.216 0.418c0.017 0.028 0.048 0.047 0.083 0.047s0.066-0.018 0.083-0.046l0-0c0.219-0.305 0.469-0.569 0.751-0.794l0.008-0.006c0.017-0.017 0.028-0.041 0.028-0.068s-0.011-0.051-0.028-0.068v0z"></path>
<path fill="#ffb6b6" style="fill: var(--color4, #ffb6b6)" d="M38.119 12.027l0.802-2.986-2.144-0.406 0.115 2.050-2.817 2.9c-0.009-0-0.020-0.001-0.031-0.001-0.425 0-0.769 0.344-0.769 0.769s0.344 0.769 0.769 0.769c0.39 0 0.712-0.29 0.762-0.667l0-0.004z"></path>
<path fill="#3f3d56" style="fill: var(--color6, #3f3d56)" d="M39.141 5.692c0.728 0.574-0.206 3.788-0.206 3.788-0.145-0.159-0.313 2.187-0.489 2.107-0.502-0.227-1.423-1.010-1.778-0.946-0.203 0.036 0.010-1.551 0.010-1.551s0.039-0.91 0.113-2.081c0.032-0.692 0.417-1.288 0.978-1.614l0.009-0.005s0.636-0.272 1.364 0.303z"></path>
<path fill="#a0616a" style="fill: var(--color2, #a0616a)" d="M14.008 12.397l0.882 3.936-5.651-0.352 1.537-3.865 3.233 0.281z"></path>
<path fill="#a0616a" style="fill: var(--color2, #a0616a)" d="M13.067 30.562l0.635-0 0.302-2.449h-0.937l0 2.449z"></path>
<path fill="#2f2e41" style="fill: var(--color5, #2f2e41)" d="M12.852 30.249l1.004-0.060v0.43l0.954 0.659c0.070 0.049 0.116 0.13 0.116 0.221 0 0.148-0.12 0.269-0.269 0.269 0 0 0 0-0 0h-1.195l-0.206-0.425-0.080 0.425h-0.45z"></path>
<path fill="#a0616a" style="fill: var(--color2, #a0616a)" d="M7.067 30.246l0.62 0.135 0.814-2.329-0.916-0.199-0.519 2.393z"></path>
<path fill="#2f2e41" style="fill: var(--color5, #2f2e41)" d="M6.923 29.895l0.993 0.154-0.091 0.42 0.793 0.846c0.045 0.048 0.073 0.113 0.073 0.184 0 0.148-0.12 0.269-0.269 0.269-0.020 0-0.040-0.002-0.059-0.006l0.002 0-1.168-0.253-0.111-0.459-0.169 0.399-0.44-0.096z"></path>
<path fill="#2f2e41" style="fill: var(--color5, #2f2e41)" d="M15.034 19.624c-0.446 2.449-0.557 3.506-0.557 3.506s0.334 0.39 0.111 0.612 0 0.668 0 0.668l-0.501 5.398-1.725-0.278 0.223-5.064s-0.223-0.446-0.111-0.557c0.111-0.111-0.111-0.779-0.111-0.779l-0.278-5.287-1.726 5.788s0.167 0.223 0 0.39c-0.167 0.167-0.5 1.002-0.5 1.002l-1.113 3.895-1.781-0.334 0.061-0.271 0.032-0.142 0.909-4.038s-0.111-0.278 0.055-0.446c0.075-0.078 0.121-0.184 0.121-0.301 0-0.032-0.003-0.062-0.010-0.092l0.001 0.003c-0.005-0.006-0.010-0.012-0.015-0.018l-0-0.001c-0.019-0.026-0.033-0.056-0.040-0.089l-0-0.002c-0.015-0.070-0.002-0.167 0.111-0.28 0.031-0.033 0.057-0.070 0.078-0.111l0.001-0.003c0.169-0.32 0.255-0.999 0.255-0.999s0.151-5.377 0.643-6.198c0.026-0.043 0.549-0.867 0.577-0.884 0.556-0.334 4.89 0.127 4.89 0.127s0.262 0.705 0.274 0.779c0.064 0.413 0.504 1.929 0.127 4.006z"></path>
<path fill="#2b5e69" style="fill: var(--color3, #2b5e69)" d="M13.717 6.673s0.094-0.487-0.807-1.388c-0.477-0.159-1.304-0.066-1.59 0-1.325 1.749-1.088 1.441-1.433 2.418-0.089 0.253-0.134 0.497-0.094 0.696 0.159 0.795 0.417 4.877 0.364 5.089s-0.424 0.477-0.053 0.477 5.156-0.084 5.050-0.243-1.436-7.049-1.436-7.049z"></path>
<path fill="#a0616a" style="fill: var(--color2, #a0616a)" d="M19.4 13.14c-0.057 0.023-0.123 0.036-0.192 0.036-0.258 0-0.474-0.184-0.523-0.427l-0.001-0.003-1.875-0.266 0.652-0.737 1.681 0.366c0.020-0.003 0.044-0.004 0.068-0.004 0.296 0 0.536 0.24 0.536 0.536 0 0.228-0.142 0.422-0.342 0.5l-0.004 0.001z"></path>
<path fill="#2b5e69" style="fill: var(--color3, #2b5e69)" d="M11.466 6.359c0.151-0.101 0.323-0.148 0.461-0.283 0.505 0.364 0.542-0.228 0.999 0.662s2.089 3.037 2.777 3.683 1.947 0.972 2.313 1.199c0.189 0.116 0.409 0.226 0.639 0.318l0.030 0.011c-0.146 0.285-0.228 0.598-0.411 0.87-1.034-0.127-2.391-0.541-3.153-0.743s-0.473-0.052-0.786-0.289-0.054-0.128-0.419-0.224-0.643-0.58-0.753-0.953c-0.262-0.268-0.487-0.557-0.746-0.822-0.3-1.146-0.633-2.287-0.95-3.428z"></path>
<path fill="#a0616a" style="fill: var(--color2, #a0616a)" d="M14.185 3.071c0 0.848-0.687 1.535-1.535 1.535s-1.535-0.687-1.535-1.535c0-0.848 0.687-1.535 1.535-1.535s1.535 0.687 1.535 1.535z"></path>
<path fill="#2f2e41" style="fill: var(--color5, #2f2e41)" d="M13.675 5.877c-0.073-0.104-0.617-1.134-0.778-1.524-0.015 0.074-0.027 0.162-0.031 0.251l-0 0.004-0.002 0.032-0.032 0.004c-0.048 0.006-1.177 0.143-1.764-0.523-0.348-0.395-0.427-0.986-0.235-1.76-0.037-0.007-0.070-0.021-0.1-0.039l0.001 0.001c-0.1-0.070-0.168-0.18-0.181-0.307l-0-0.002-0.033 0.009c-1.045-0.509-0.145-1.996 0.81-1.257 0.030-0.007 0.065-0.011 0.101-0.011 0.054 0 0.106 0.009 0.155 0.027l-0.003-0.001c0.157 0.065 0.269 0.209 0.289 0.381l0 0.002c0.493-0.259 1.146-0.217 1.484-0.023 0.141 0.082 0.223 0.184 0.237 0.299 0.399 0.022 0.828 0.411 0.828 0.961v0.038h-0.038c-0.336 0.007-0.625 0.201-0.769 0.481l-0.002 0.005c-0.089 0.157-0.141 0.346-0.141 0.546 0 0.224 0.065 0.433 0.178 0.609l-0.003-0.004c0.165 0.25 0.263 0.556 0.263 0.886 0 0.126-0.014 0.248-0.041 0.366l0.002-0.011-0.144 0.631z"></path>
<path fill="#ccc" style="fill: var(--color9, #ccc)" d="M18.129 31.78c0 0 0 0 0 0 0 0.042-0.034 0.076-0.076 0.076-0 0-0 0-0 0v0h-17.976c-0.042 0-0.076-0.034-0.076-0.076s0.034-0.076 0.076-0.076h17.976c0 0 0 0 0 0 0.042 0 0.076 0.034 0.076 0.076 0 0 0 0 0 0v0z"></path>
<path fill="#ccc" style="fill: var(--color9, #ccc)" d="M42.629 31.78c0 0 0 0 0 0 0 0.042-0.034 0.076-0.076 0.076-0 0-0 0-0 0v0h-17.976c-0.042 0-0.076-0.034-0.076-0.076s0.034-0.076 0.076-0.076h17.976c0 0 0 0 0 0 0.042 0 0.076 0.034 0.076 0.076 0 0 0 0 0 0v0z"></path>
<path fill="#e6e6e6" style="fill: var(--color7, #e6e6e6)" d="M21.285 25.601c0 0.375-0.304 0.679-0.679 0.679s-0.679-0.304-0.679-0.679c0-0.375 0.304-0.679 0.679-0.679s0.679 0.304 0.679 0.679z"></path>
<path fill="#e6e6e6" style="fill: var(--color7, #e6e6e6)" d="M25.839 26.306c0 0.375-0.304 0.679-0.679 0.679s-0.679-0.304-0.679-0.679c0-0.375 0.304-0.679 0.679-0.679s0.679 0.304 0.679 0.679z"></path>
<path fill="#e6e6e6" style="fill: var(--color7, #e6e6e6)" d="M30.392 25.472c0 0.375-0.304 0.679-0.679 0.679s-0.679-0.304-0.679-0.679c0-0.375 0.304-0.679 0.679-0.679s0.679 0.304 0.679 0.679z"></path>
</symbol>
<symbol id="icon-dance" viewBox="0 0 41 32">
<path fill="#2b5e69" style="fill: var(--color3, #2b5e69)" opacity="0.1" d="M40.355 8.514c-0.435-0.997-0.983-1.855-1.643-2.613l0.010 0.012-22.646-0.223 18.645-2.619c-1.119-0.459-2.417-0.733-3.776-0.751l-0.007-0c-1.797-1.446-4.107-2.321-6.62-2.321-2.262 0-4.358 0.708-6.079 1.915l0.034-0.023c-1.403-0.736-3.064-1.168-4.827-1.168-0.007 0-0.014 0-0.021 0h0.001c-5.032 0-9.225 3.485-10.165 8.106z"></path>
<path fill="#2b5e69" style="fill: var(--color3, #2b5e69)" opacity="0.1" d="M41.151 12.39c0-0.002 0-0.005 0-0.008 0-1.315-0.259-2.569-0.729-3.715l0.024 0.065-39.249 4.12c-0.377 0.668-0.693 1.441-0.906 2.255l-0.015 0.068 12.154 1.812-12.432 1.322c0.374 5.232 4.859 9.363 10.338 9.363 2.758 0 5.264-1.047 7.121-2.754 1.863 1.74 4.393 2.809 7.18 2.809 4.136 0 7.706-2.355 9.368-5.76 3.335-1.058 5.926-3.716 6.813-7.041l-15.369-2.386h15.702c-0.001-0.050 0-0.1 0-0.15z"></path>
<path fill="#2b5e69" style="fill: var(--color3, #2b5e69)" d="M20.576 30.51c0 0.823-4.071 1.49-9.093 1.49s-9.093-0.667-9.093-1.49c0-0.823 4.071-1.49 9.093-1.49s9.093 0.667 9.093 1.49z"></path>
<path fill="#60552b" style="fill: var(--color13, #60552b)" d="M20.887 20.908c-0.409 0.103-0.829-0.097-0.829-0.097s-0.358-0.415-0.66-0.471-0.419 0.435-0.598 0.561c-0.124 0.089-1.020 0.025-1.562-0.022l-0.093-0.008c-0.009-0.007-0.018-0.014-0.028-0.020 0 0-0.521-0.16-0.629-0.302s-0.834-0.404-1.059-0.389-0.89 0.051-0.89 0.051-0.261-0.297-0.379-0.266-0.527-0.002-0.527-0.002-0.113-0.289-0.225-0.704c-0.052-0.193-0.227-0.329-0.398-0.419 0.154-0.521-0.12-2.006-0.971-2.296-0.185-0.063-0.28-0.274-0.438-0.389-0.141-0.103-0.373-0.346-0.26-0.784 0.16-0.614 0.558-1.581 0.558-1.581l0.296-0.591c-0.029 0.044-0.060 0.082-0.094 0.118l0-0c0.040-0.051 0.080-0.102 0.115-0.144 0.276 0.142 0.598 0.236 0.94 0.261l0.008 0c0.334 0.135 0.668 0.254 0.797 0.25 0.297-0.010 1.054 0.368 1.054 0.368s1.821 0.521 2.2 0.563 0.563-0.45 0.563-0.45 0.197-0.971-0.153-1.228-0.552 0.921-0.552 0.921l-2.383-0.859-0.147-0.077c0.111-0.117 0.201-0.255 0.264-0.407l0.003-0.009c0.037-0.092 0.070-0.197 0.158-0.242 0.022-0.011 0.047-0.019 0.074-0.022l0.001-0c0.010-0.001 0.021-0.001 0.033-0.001s0.023 0 0.034 0.001l-0.002-0c0.413 0.025 0.769 0.351 1.183 0.352 0.015 0 0.030 0 0.046 0 0.083-0 0.159-0.026 0.223-0.069l-0.001 0.001c0.073-0.059 0.12-0.146 0.127-0.245l0-0.001c-0.007 0.015-0.014 0.028-0.021 0.040l0.001-0.002c0.005-0.027 0.008-0.058 0.008-0.089s-0.003-0.062-0.009-0.092l0 0.003c-0.026-0.141-0.099-0.267-0.165-0.394-0.018-0.028-0.029-0.062-0.030-0.098v-0c0.004-0.038 0.023-0.071 0.051-0.093l0-0c0.001 0.005 0.002 0.008 0.003 0.012l-0-0.001c0.030-0.028 0.064-0.054 0.101-0.074l0.003-0.001c0.201-0.133 0.342-0.341 0.385-0.583l0.001-0.005c-0.010 0.030-0.022 0.059-0.035 0.088 0.024-0.075 0.037-0.162 0.037-0.252 0-0.132-0.029-0.257-0.082-0.368l0.002 0.005c-0.024-0.056-0.060-0.103-0.106-0.139l-0.001-0.001c-0.149-0.105-0.35 0.007-0.532 0.019-0.16 0.010-0.316-0.061-0.46-0.134-0.247-0.124-0.492-0.258-0.698-0.441-0.234-0.21-0.407-0.477-0.618-0.709s-0.481-0.439-0.795-0.462c-0.57-0.044-1.108 0.521-1.649 0.336-0.264-0.089-0.438-0.334-0.622-0.544s-0.437-0.411-0.712-0.366c-0.191 0.032-0.357 0.181-0.551 0.175-0.101-0.003-0.195-0.048-0.292-0.080-0.233-0.078-0.552-0.040-0.634 0.191-0.012 0.033-0.019 0.072-0.019 0.111 0 0.065 0.018 0.126 0.050 0.177l-0.001-0.002c-0.011 0.015-0.022 0.033-0.032 0.052l-0.001 0.002c-0.014 0.025-0.022 0.056-0.022 0.088 0 0.011 0.001 0.022 0.003 0.033l-0-0.001c-0.253 0.228-0.411 0.556-0.411 0.921 0 0.563 0.376 1.039 0.891 1.188l0.009 0.002c0.008 0.029 0.015 0.058 0.022 0.088 0.078 0.327 0.118 0.696 0.003 0.944-0.007 0.015-0.015 0.030-0.023 0.044l-0.010 0.004-0.014-0.015-0.087-0.091c-0.005-0.095-0.058-0.351-0.432-0.825-0.491-0.624-0.584-1.658-0.584-1.658s-0.123-0.532 0-0.685 0.328-1.843 0.328-1.843l0.339-0.951s1.647-1.678 0.961-1.883c-0.466-0.139-1.021 0.577-1.33 1.051-0.145 0.219-0.246 0.48-0.286 0.761l-0.001 0.010-0.931 2.548s-0.092 0.307 0 0.839 0.297 1.474 0.297 1.474l0.521 1.32s0.192 0.57 0.175 0.818c-0.023 0.015-0.103 0.173-0.172 0.318l-0.051 0.080-0.004 0.032c-0.034 0.072-0.058 0.125-0.058 0.125s-0.29 0.856-0.048 1.381 0.252 0.769 0.252 0.769l0.181 0.778 0.075 0.681 0.65 1.607 0.598 0.854s-0.056 0.629-0.179 0.716-0.066 0.537-0.066 0.537l-0.077 1.182s-0.24 0.353-0.256 0.926-0.103 0.737-0.103 0.737-0.040 0.481 0.072 0.701-0.179 0.45-0.179 0.45l0.25 0.857-0.097 1.085s0.045 0.012 0.12 0.031l-0.015 0.078-0.407 2.055s-0.22 0.563-0.23 0.696l-0.711 1.285s-0.594 0.588-0.312 0.645 1.1-0.45 1.1-0.45 0.675-0.727 0.941-0.793 0.561-0.256 0.476-0.532-0.28-0.696-0.092-1.141c0.12-0.28 0.376-1.041 0.551-1.573 0.010-0.029 0.019-0.057 0.028-0.085 0.051-0.005 0.097-0.014 0.142-0.027l-0.005 0.001c0.43-0.133 0.655-0.040 0.655-0.040l0.767-3.105 0.169-1.558 1.075 0.896c0.204 0.171 0.464 0.28 0.749 0.297l0.004 0c0.423 0.025 1.084 0.086 1.562 0.234l0.2-0.834s0.573 0.021 0.696-0.174c0.050-0.080 0.099-0.148 0.14-0.2l2.628-0.407c0.471 0 1.116-0.318 1.116-0.318l0.394-0.076s0.588-0.118 0.641-0.215-0.552-0.421-0.962-0.319z"></path>
<path fill="#663d5b" style="fill: var(--color14, #663d5b)" d="M9.383 8.4c0.080-0.226 0.393-0.264 0.621-0.187 0.094 0.031 0.186 0.076 0.285 0.080 0.19 0.006 0.352-0.14 0.54-0.171 0.27-0.045 0.517 0.152 0.697 0.358s0.351 0.445 0.609 0.532c0.53 0.179 1.056-0.373 1.614-0.33 0.306 0.024 0.57 0.225 0.777 0.452s0.376 0.488 0.604 0.693c0.2 0.18 0.441 0.311 0.683 0.433 0.141 0.071 0.292 0.141 0.45 0.131 0.179-0.012 0.375-0.12 0.521-0.018 0.045 0.036 0.081 0.082 0.103 0.135l0.001 0.002c0.179 0.373 0.035 0.87-0.316 1.090-0.061 0.038-0.136 0.080-0.139 0.153 0.001 0.036 0.012 0.069 0.030 0.097l-0-0.001c0.064 0.124 0.136 0.248 0.16 0.385s-0.008 0.296-0.12 0.379c-0.064 0.043-0.142 0.068-0.226 0.068-0.008 0-0.015-0-0.022-0.001l0.001 0c-0.405-0.002-0.753-0.32-1.158-0.345-0.010-0.001-0.022-0.002-0.033-0.002-0.043 0-0.084 0.009-0.12 0.026l0.002-0.001c-0.086 0.044-0.12 0.147-0.155 0.237-0.187 0.468-0.653 0.794-1.15 0.883s-1.015-0.036-1.46-0.275c-0.034-0.016-0.063-0.037-0.089-0.061l0 0c-0.036-0.043-0.062-0.095-0.076-0.152l-0.001-0.003c-0.136-0.431-0.32-0.881-0.698-1.13-0.245-0.16-0.577-0.25-0.688-0.521-0.070-0.171-0.026-0.365-0.044-0.55-0.037-0.327-0.256-0.595-0.552-0.702l-0.006-0.002c-0.066-0.022-0.138-0.038-0.186-0.088-0.038-0.047-0.063-0.105-0.072-0.168l-0-0.002c-0.060-0.271-0.099-0.558-0.183-0.822-0.064-0.207-0.29-0.367-0.205-0.604z"></path>
<path fill="#000" style="fill: var(--color10, #000)" opacity="0.1" d="M16.549 12.489c-0.063 0.042-0.141 0.067-0.224 0.067-0.008 0-0.016-0-0.024-0.001l0.001 0c-0.405 0-0.753-0.32-1.157-0.344-0.010-0.001-0.022-0.002-0.034-0.002-0.043 0-0.083 0.009-0.12 0.026l0.002-0.001c-0.086 0.044-0.12 0.147-0.155 0.237-0.187 0.469-0.653 0.794-1.15 0.884s-1.015-0.036-1.46-0.275c-0.034-0.017-0.063-0.037-0.089-0.061l0 0c-0.036-0.043-0.062-0.095-0.076-0.152l-0.001-0.003c-0.136-0.431-0.32-0.881-0.698-1.13-0.245-0.162-0.577-0.25-0.688-0.521-0.070-0.171-0.026-0.366-0.044-0.55-0.037-0.327-0.256-0.595-0.553-0.702l-0.006-0.002c-0.066-0.022-0.138-0.038-0.186-0.088-0.038-0.047-0.063-0.105-0.072-0.169l-0-0.002c-0.060-0.271-0.099-0.558-0.183-0.822-0.056-0.177-0.233-0.32-0.224-0.509-0.004 0.008-0.009 0.019-0.013 0.029l-0.001 0.002c-0.086 0.238 0.141 0.397 0.206 0.601 0.083 0.264 0.123 0.551 0.183 0.822 0.008 0.065 0.034 0.124 0.072 0.171l-0.001-0.001c0.048 0.050 0.12 0.066 0.186 0.088 0.302 0.109 0.522 0.377 0.558 0.701l0 0.004c0.017 0.184-0.026 0.378 0.044 0.55 0.111 0.272 0.443 0.361 0.688 0.521 0.377 0.25 0.561 0.699 0.698 1.13 0.014 0.060 0.041 0.112 0.077 0.156l-0.001-0.001c0.025 0.024 0.055 0.044 0.086 0.060l0.002 0.001c0.444 0.24 0.961 0.364 1.46 0.275s0.961-0.415 1.15-0.884c0.036-0.090 0.069-0.193 0.155-0.237 0.035-0.016 0.075-0.025 0.118-0.025 0.012 0 0.024 0.001 0.035 0.002l-0.001-0c0.405 0.024 0.752 0.343 1.157 0.344 0.006 0 0.014 0.001 0.021 0.001 0.084 0 0.162-0.025 0.227-0.069l-0.002 0.001c0.071-0.058 0.118-0.143 0.125-0.239l0-0.001c-0.021 0.048-0.053 0.088-0.092 0.118l-0.001 0.001z"></path>
<path fill="#000" style="fill: var(--color10, #000)" opacity="0.1" d="M16.619 11.474c-0.061 0.040-0.136 0.080-0.14 0.153-0 0.001-0 0.002-0 0.003 0 0.014 0.003 0.028 0.007 0.041l-0-0.001c0.029-0.028 0.063-0.053 0.098-0.073l0.003-0.001c0.196-0.13 0.335-0.333 0.377-0.57l0.001-0.005c-0.062 0.19-0.183 0.347-0.342 0.451l-0.003 0.002z"></path>
<path fill="#cc818c" style="fill: var(--color15, #cc818c)" d="M10.432 28.177c-0.185 0.436 0.005 0.846 0.090 1.117s-0.205 0.455-0.465 0.521-0.921 0.776-0.921 0.776-0.801 0.495-1.077 0.441 0.305-0.631 0.305-0.631l0.696-1.257c0.010-0.13 0.225-0.681 0.225-0.681l0.451-2.278 1.412-0.085s-0.074 0.229-0.176 0.539c-0.172 0.521-0.423 1.267-0.54 1.539z"></path>
<path fill="#cc818c" style="fill: var(--color15, #cc818c)" d="M21.697 21.148c-0.050 0.095-0.626 0.21-0.626 0.21l-0.386 0.075s-0.631 0.311-1.091 0.311l-2.814 0.436v-1.408s0.167 0.018 0.405 0.040c0.53 0.046 1.407 0.108 1.528 0.022 0.175-0.125 0.29-0.606 0.586-0.55s0.646 0.461 0.646 0.461 0.411 0.195 0.811 0.095 0.991 0.213 0.941 0.309z"></path>
<path fill="#000" style="fill: var(--color10, #000)" opacity="0.1" d="M17.201 22.019s-0.036 0.040-0.088 0.109l-0.333 0.052v-1.407s0.167 0.018 0.405 0.040c0.398 0.314 0.016 1.207 0.016 1.207z"></path>
<path fill="#565987" style="fill: var(--color16, #565987)" d="M12.41 21.694l1.333 1.112c0.2 0.167 0.454 0.274 0.734 0.291l0.003 0c0.414 0.024 1.061 0.084 1.53 0.229l0.195-0.816s0.561 0.020 0.681-0.17c0.077-0.121 0.154-0.226 0.238-0.324l-0.003 0.004s0.406-0.946-0.055-1.236c0 0-0.511-0.155-0.616-0.296s-0.816-0.395-1.036-0.381-0.871 0.050-0.871 0.050-0.256-0.29-0.37-0.26-0.516 0-0.516 0-0.11-0.283-0.22-0.689-0.766-0.551-0.766-0.551z"></path>
<path fill="#000" style="fill: var(--color10, #000)" opacity="0.1" d="M12.41 21.694l1.333 1.112c0.2 0.167 0.454 0.274 0.734 0.291l0.003 0c0.414 0.024 1.061 0.084 1.53 0.229l0.195-0.816s0.561 0.020 0.681-0.17c0.077-0.121 0.154-0.226 0.238-0.324l-0.003 0.004s0.406-0.946-0.055-1.236c0 0-0.511-0.155-0.616-0.296s-0.816-0.395-1.036-0.381-0.871 0.050-0.871 0.050-0.256-0.29-0.37-0.26-0.516 0-0.516 0-0.11-0.283-0.22-0.689-0.766-0.551-0.766-0.551z"></path>
<path fill="#cc818c" style="fill: var(--color15, #cc818c)" d="M11.814 11.725l-0.147 0.028h-0.009l-0.274 0.051-0.078 0.092-0.003 0.003-0.25 0.296-0.21 0.206-0.002 0.002-0.178 0.173-0.301 0.299-0.050 0.125-0.11 0.276-0.028 0.070-0.3 0.32-0.192 0.411-0.449 0.26-0.483-0.25-0.22-0.32 0.060-0.551 0.147-0.236 0.133-0.215 0.26-0.37 0.501-0.34 0.19-0.050c0.007-0.010 0.014-0.021 0.020-0.032l0.001-0.002c0.007-0.012 0.015-0.026 0.022-0.041l0.001-0.003c0.113-0.243 0.073-0.604-0.003-0.924-0.067-0.273-0.146-0.507-0.243-0.731l0.012 0.030 1.322-0.19s-0.013 0.256-0.013 0.656v0c0 0.1 0 0.209 0.003 0.325 0.006 0.361 0.341 0.517 0.594 0.583 0.054 0.015 0.121 0.029 0.189 0.039l0.009 0.001c0.049 0.008 0.079 0.009 0.079 0.009z"></path>
<path fill="#cc818c" style="fill: var(--color15, #cc818c)" d="M9.731 11.914s0.060-0.24-0.421-0.851-0.571-1.622-0.571-1.622-0.12-0.521 0-0.671 0.32-1.803 0.32-1.803l0.33-0.931s1.612-1.642 0.941-1.843c-0.456-0.136-1.001 0.565-1.301 1.028-0.142 0.215-0.241 0.47-0.279 0.745l-0.001 0.010-0.912 2.493s-0.090 0.3 0 0.821 0.29 1.442 0.29 1.442l0.511 1.293s0.269 0.805 0.129 0.903l0.311-0.46z"></path>
<path fill="#cc818c" style="fill: var(--color15, #cc818c)" d="M17.712 14.219s-0.18 0.481-0.551 0.441-2.153-0.551-2.153-0.551-0.741-0.37-1.031-0.361-1.622-0.611-1.622-0.611-0.094 0.123-0.198 0.253c-0.114 0.142-0.24 0.292-0.272 0.298-0.060 0.010-0.991 0.14-0.991 0.14l-0.631-0.29-0.060-0.262-0.028-0.12 0.324-0.361 0.347-0.396 0.463-0.504 0.352-0.143h0.009c0.035-0.006 0.171-0.018 0.352 0.084 0.119 0.068 0.258 0.114 0.408 0.127l0.004 0c0.3 0.022 0.569 0.144 0.775 0.333l-0.001-0.001 1.482 0.78 2.333 0.841s0.2-1.152 0.541-0.901 0.15 1.203 0.15 1.203z"></path>
<path fill="#000" style="fill: var(--color10, #000)" opacity="0.1" d="M12.156 13.39c-0.114 0.142-0.24 0.292-0.272 0.298-0.060 0.010-0.991 0.14-0.991 0.14l-0.631-0.29-0.060-0.262-0.028 0.070-0.3 0.32-0.192 0.411-0.449 0.26-0.483-0.25-0.22-0.32 0.050-0.459c0.025-0.054 0.094-0.203 0.157-0.328 0.032-0.074 0.070-0.138 0.113-0.197l-0.002 0.003c0.040-0.026 0.082-0.31 0.082-0.31 0.182-0.524 0.791-0.605 0.791-0.605l0.097 0.091 0.042 0.044c-0.017-0.003 0.003-0.040-0.019-0.034-0.035 0.010-0.051 0.063-0.096 0.093-0.246 0.16-0.631 0.534-0.784 0.711-0.037 0.043-0.075 0.085-0.114 0.126-0.22 0.233-0.179 0.541-0.179 0.541-0.055 0.24 0.431 0.421 0.431 0.421 0.135-0.225 1.051-0.846 1.051-0.846l0.617-0.691c0.189-0.329 0.561-0.547 0.768-0.649 0.092-0.045 0.152-0.067 0.152-0.067l0.231 0.099c-0.024-0.007-0.051-0.010-0.080-0.010-0.038 0-0.074 0.007-0.107 0.019l0.002-0.001c-0.038 0.012-0.071 0.026-0.102 0.042l0.004-0.002c-0.012 0.006-0.024 0.012-0.035 0.019-0.067 0.039-0.125 0.081-0.178 0.129l0.001-0.001-0.518 0.566c-0.396 0.432-0.098 1.131 0.488 1.141h0.005c0.358 0.082 0.615-0.083 0.758-0.221z"></path>
<path fill="#000" style="fill: var(--color10, #000)" opacity="0.1" d="M11.147 26.1s-0.074 0.229-0.176 0.539c-0.392 0.029-1.039-0.122-1.288-0.186l0.053-0.267z"></path>
<path fill="#565987" style="fill: var(--color16, #565987)" d="M9.861 12.005l-0.128-0.131s-0.463 0.063-0.75 0.558c0 0-0.134 0.37-0.175 0.397s-0.278 0.544-0.278 0.544-0.284 0.838-0.047 1.352 0.247 0.751 0.247 0.751l0.177 0.761 0.073 0.667 0.636 1.572 0.586 0.834s-0.055 0.616-0.175 0.701-0.065 0.526-0.065 0.526l-0.075 1.157s-0.236 0.345-0.25 0.906-0.1 0.721-0.1 0.721-0.040 0.471 0.070 0.686-0.175 0.441-0.175 0.441l0.246 0.836-0.095 1.061s1.132 0.316 1.552 0.185 0.641-0.040 0.641-0.040l0.751-3.041 0.26-2.388s0.015-1.692 0.24-2.208c0.193-0.441-0.060-2.010-0.93-2.307-0.181-0.062-0.274-0.268-0.429-0.381-0.139-0.101-0.365-0.338-0.254-0.767 0.155-0.601 0.546-1.547 0.546-1.547l0.289-0.576s-0.314 0.509-0.89 0.379h-0.005c-0.586-0.010-0.884-0.709-0.488-1.141l0.518-0.566s0.286-0.263 0.496-0.197l-0.23-0.099s-0.649 0.24-0.921 0.716l-0.617 0.691s-0.915 0.618-1.051 0.845c0 0-0.485-0.18-0.431-0.421 0 0-0.040-0.309 0.179-0.542 0.040-0.040 0.077-0.082 0.114-0.125 0.197-0.231 0.743-0.843 0.938-0.81z"></path>
<path fill="#000" style="fill: var(--color10, #000)" opacity="0.1" d="M9.936 16.131s-0.145 1.057-0.035 1.272z"></path>
<path fill="#000" style="fill: var(--color10, #000)" opacity="0.1" d="M10.031 16.542l0.155 0.606s0.055-0.37-0.155-0.606z"></path>
<path fill="#000" style="fill: var(--color10, #000)" opacity="0.1" d="M9.11 16.4s0.31 1.542 0.651 2.008z"></path>
<path fill="#000" style="fill: var(--color10, #000)" opacity="0.1" d="M11.298 18.259s-0.531 0.501-0.736 0.464c0 0 0.816 0.035 1.072-0.395 0 0.001-0.165-0.119-0.335-0.069z"></path>
<path fill="#000" style="fill: var(--color10, #000)" opacity="0.1" d="M12.034 18.219s-0.681 0.495-0.816 0.541c0 0 0.736-0.21 0.816-0.541z"></path>
<path fill="#000" style="fill: var(--color10, #000)" opacity="0.1" d="M9.731 14.539s-0.34 0.436-0.511 0.386c0 0 0.416 0.015 0.511-0.386z"></path>
<path fill="#000" style="fill: var(--color10, #000)" opacity="0.1" d="M10.116 15.1s0.741-1.006 1.091-0.966c0 0-0.841 0.731-1.091 0.966z"></path>
<path fill="#000" style="fill: var(--color10, #000)" opacity="0.1" d="M11.143 14.734s-0.471 0.236-0.421 0.305 0.421-0.305 0.421-0.305z"></path>
<path fill="#000" style="fill: var(--color10, #000)" opacity="0.1" d="M11.483 22.46s-1.572 0.916-1.717 0.961c0 0 0.27 0.206 0.526 0.105s1.192-1.067 1.192-1.067z"></path>
<path fill="#000" style="fill: var(--color10, #000)" opacity="0.1" d="M10.166 24.368s-0.631-0.065-0.606 0.14 0.606-0.14 0.606-0.14z"></path>
<path fill="#000" style="fill: var(--color10, #000)" opacity="0.1" d="M10.952 10.112s-0.013 0.256-0.013 0.656v0c-0.207 0.171-0.476 0.275-0.769 0.275-0.11 0-0.216-0.015-0.318-0.042l0.008 0.002c-0.067-0.273-0.146-0.507-0.243-0.731l0.012 0.030z"></path>
<path fill="#cc818c" style="fill: var(--color15, #cc818c)" d="M11.383 9.753c0 0.669-0.543 1.212-1.212 1.212s-1.212-0.543-1.212-1.212c0-0.669 0.543-1.212 1.212-1.212s1.212 0.543 1.212 1.212z"></path>
<path fill="#000" style="fill: var(--color10, #000)" opacity="0.1" d="M10.489 10.492c0.034 0.495 0.138 1.062 0.568 1.311 0.311 0.18 0.703 0.133 1.047 0.030s0.681-0.256 1.039-0.273c0.275-0.013 0.547 0.054 0.822 0.072s0.575-0.026 0.771-0.219c0.28-0.275 0.229-0.774-0.036-1.063s-0.681-0.394-1.074-0.383c-0.481 0.013-1.017 0.16-1.398-0.131-0.255-0.196-0.352-0.537-0.566-0.777-0.358-0.401-1.944-0.979-2.28-0.326-0.157 0.306 0.558 0.524 0.724 0.745 0.262 0.349 0.353 0.556 0.384 1.013z"></path>
<path fill="#663d5b" style="fill: var(--color14, #663d5b)" d="M10.526 10.449c0.034 0.496 0.138 1.063 0.568 1.311 0.311 0.18 0.703 0.133 1.047 0.030s0.681-0.256 1.039-0.273c0.275-0.013 0.547 0.054 0.822 0.072s0.574-0.026 0.77-0.219c0.28-0.275 0.229-0.774-0.036-1.063s-0.681-0.394-1.074-0.383c-0.481 0.013-1.018 0.16-1.398-0.132-0.255-0.196-0.352-0.536-0.566-0.777-0.358-0.401-1.944-0.979-2.28-0.326-0.157 0.305 0.558 0.524 0.724 0.745 0.262 0.348 0.352 0.555 0.384 1.013z"></path>
<path fill="#000" style="fill: var(--color10, #000)" opacity="0.1" d="M9.069 13.862c0.040-0.329 0.217-0.611 0.473-0.788l0.004-0.002z"></path>
<path fill="#000" style="fill: var(--color10, #000)" opacity="0.1" d="M13.612 20.137c-0.004 0.042-0.014 0.081-0.029 0.117l0.001-0.003c-0.061 0.182-0.125 0.334-0.199 0.48l0.010-0.021c0.107-0.009 0.195-0.093 0.24-0.19 0.038-0.092 0.061-0.199 0.064-0.311l0-0.001c0.002-0.020 0.004-0.043 0.004-0.066 0-0.012-0-0.024-0.001-0.036l0 0.002c-0.003-0.031-0.023-0.151-0.075-0.129-0.042 0.018-0.015 0.128-0.016 0.16z"></path>
<path fill="#000" style="fill: var(--color10, #000)" opacity="0.1" d="M14.845 11.246c-0.196 0.193-0.496 0.236-0.771 0.219s-0.548-0.085-0.822-0.071c-0.361 0.017-0.695 0.17-1.039 0.273s-0.736 0.15-1.047-0.030c-0.43-0.249-0.534-0.816-0.568-1.311-0.031-0.457-0.123-0.665-0.384-1.013-0.158-0.211-0.815-0.419-0.74-0.703-0.021 0.024-0.039 0.052-0.055 0.081l-0.001 0.002c-0.157 0.305 0.558 0.524 0.724 0.745 0.262 0.348 0.352 0.556 0.384 1.013 0.034 0.496 0.138 1.063 0.568 1.311 0.311 0.18 0.703 0.133 1.047 0.030s0.681-0.256 1.039-0.273c0.275-0.013 0.547 0.054 0.822 0.072s0.574-0.026 0.77-0.219c0.054-0.054 0.098-0.118 0.129-0.189l0.001-0.004c-0.018 0.025-0.037 0.047-0.058 0.067l-0 0z"></path>
<path fill="#cc818c" style="fill: var(--color15, #cc818c)" d="M8.982 14.888l-0.147 0.32 0.467-0.093-0.32-0.227z"></path>
<path fill="#000" style="fill: var(--color10, #000)" opacity="0.1" d="M8.982 14.888l-0.121 0.32h-0.026l0.147-0.32z"></path>
<path fill="#2b5e69" style="fill: var(--color3, #2b5e69)" opacity="0.1" d="M22.192 29.207c0 0.125-0.735 0.226-1.642 0.226s-1.642-0.101-1.642-0.226c0-0.125 0.735-0.226 1.642-0.226s1.642 0.101 1.642 0.226z"></path>
<path fill="#2b5e69" style="fill: var(--color3, #2b5e69)" opacity="0.1" d="M28.482 29.845c0 0.125-0.735 0.226-1.642 0.226s-1.642-0.101-1.642-0.226c0-0.125 0.735-0.226 1.642-0.226s1.642 0.101 1.642 0.226z"></path>
<path fill="#2b5e69" style="fill: var(--color3, #2b5e69)" opacity="0.1" d="M35.892 28.982c0 0.125-0.735 0.226-1.642 0.226s-1.642-0.101-1.642-0.226c0-0.125 0.735-0.226 1.642-0.226s1.642 0.101 1.642 0.226z"></path>
<path fill="#2b5e69" style="fill: var(--color3, #2b5e69)" opacity="0.1" d="M25.489 31.661c0 0.088-0.523 0.16-1.167 0.16s-1.167-0.072-1.167-0.16c0-0.088 0.523-0.16 1.167-0.16s1.167 0.072 1.167 0.16z"></path>
<path fill="#2b5e69" style="fill: var(--color3, #2b5e69)" opacity="0.1" d="M32.018 31.501c0 0.088-0.523 0.16-1.167 0.16s-1.167-0.072-1.167-0.16c0-0.088 0.523-0.16 1.167-0.16s1.167 0.072 1.167 0.16z"></path>
<path fill="#2b5e69" style="fill: var(--color3, #2b5e69)" d="M26.876 29.795s-2.303-7.55 0.36-10.575c1.992-2.262 4.254-1.992 5.267-1.712 0.538 0.146 0.97 0.512 1.203 0.993l0.005 0.011c0.354 0.764 0.29 2.003-2.209 3.452-4.186 2.423-4.446 5.748-4.446 5.748z"></path>
<path fill="#2b5e69" style="fill: var(--color3, #2b5e69)" d="M26.784 29.855s2.697-5.488 3.438-5.367c0.352 0.057 0.514 0.403 0.588 0.751 0.028 0.131 0.043 0.281 0.043 0.435 0 0.326-0.071 0.636-0.198 0.915l0.006-0.014c-0.383 0.878-1.411 2.545-3.877 3.28z"></path>
<path fill="#2b5e69" style="fill: var(--color3, #2b5e69)" d="M26.864 29.855s-2.697-5.488-3.438-5.367c-0.352 0.057-0.514 0.403-0.588 0.751-0.028 0.133-0.045 0.285-0.045 0.441 0 0.324 0.070 0.632 0.195 0.909l-0.006-0.014c0.383 0.878 1.411 2.545 3.881 3.28z"></path>
<path fill="#2b5e69" style="fill: var(--color3, #2b5e69)" d="M31.494 31.136c0.072-0.059 0.126-0.138 0.153-0.228l0.001-0.003c0.020-0.092-0.020-0.202-0.107-0.236-0.099-0.038-0.204 0.030-0.284 0.099s-0.171 0.148-0.276 0.133c0.085-0.077 0.138-0.188 0.138-0.311 0-0.029-0.003-0.058-0.009-0.085l0 0.003c-0.005-0.031-0.017-0.058-0.036-0.080l0 0c-0.054-0.058-0.154-0.033-0.22 0.013-0.208 0.147-0.266 0.429-0.267 0.684-0.021-0.092-0.004-0.188-0.004-0.28s-0.026-0.2-0.106-0.249c-0.045-0.025-0.098-0.040-0.155-0.040-0.002 0-0.004 0-0.005 0h0c-0.094-0.003-0.198 0.006-0.262 0.075-0.080 0.085-0.059 0.228 0.010 0.32s0.174 0.152 0.271 0.217c0.079 0.047 0.144 0.109 0.192 0.182l0.001 0.002c0.005 0.009 0.010 0.020 0.014 0.032l0 0.001h0.587c0.138-0.070 0.257-0.153 0.363-0.25l-0.001 0.001z"></path>
<path fill="#2b5e69" style="fill: var(--color3, #2b5e69)" d="M21.217 28.926c0.072-0.059 0.126-0.138 0.153-0.229l0.001-0.003c0.020-0.092-0.019-0.2-0.107-0.236-0.099-0.038-0.203 0.030-0.284 0.1s-0.171 0.147-0.276 0.133c0.084-0.077 0.137-0.188 0.137-0.311 0-0.030-0.003-0.058-0.009-0.086l0 0.003c-0.005-0.031-0.018-0.058-0.036-0.080l0 0c-0.055-0.058-0.154-0.034-0.22 0.012-0.208 0.147-0.266 0.429-0.268 0.684-0.021-0.092-0.003-0.187-0.004-0.28s-0.026-0.2-0.106-0.25c-0.043-0.024-0.095-0.038-0.15-0.038-0.004 0-0.007 0-0.011 0h0c-0.093-0.004-0.198 0.006-0.262 0.074-0.080 0.085-0.059 0.228 0.010 0.32s0.174 0.152 0.271 0.217c0.078 0.047 0.143 0.109 0.192 0.182l0.001 0.002c0.006 0.009 0.010 0.020 0.014 0.032l0 0.001h0.587c0.138-0.071 0.258-0.154 0.364-0.25l-0.001 0.001z"></path>
<path fill="#2b5e69" style="fill: var(--color3, #2b5e69)" d="M24.641 31.136c0.072-0.059 0.126-0.138 0.153-0.228l0.001-0.003c0.020-0.092-0.020-0.202-0.107-0.236-0.099-0.038-0.204 0.030-0.284 0.099s-0.171 0.148-0.276 0.133c0.085-0.077 0.138-0.188 0.138-0.311 0-0.029-0.003-0.057-0.009-0.085l0 0.003c-0.005-0.031-0.017-0.058-0.036-0.080l0 0c-0.054-0.058-0.154-0.033-0.22 0.013-0.208 0.147-0.266 0.429-0.267 0.684-0.021-0.092-0.004-0.188-0.004-0.28s-0.026-0.2-0.106-0.249c-0.045-0.025-0.098-0.040-0.155-0.040-0.002 0-0.004 0-0.005 0h0c-0.094-0.003-0.198 0.006-0.262 0.075-0.080 0.085-0.059 0.228 0.010 0.32s0.174 0.152 0.271 0.217c0.079 0.047 0.144 0.109 0.192 0.182l0.001 0.002c0.005 0.009 0.010 0.020 0.014 0.032l0 0.001h0.587c0.138-0.070 0.257-0.153 0.363-0.25l-0.001 0.001z"></path>
<path fill="#2b5e69" style="fill: var(--color3, #2b5e69)" d="M34.355 26.669s0.22 0.288-0.101 0.721-0.587 0.801-0.481 1.072c0 0 0.485-0.807 0.881-0.818s0.137-0.49-0.299-0.975z"></path>
<path fill="#000" style="fill: var(--color10, #000)" opacity="0.1" d="M34.355 26.669c0.018 0.026 0.033 0.056 0.044 0.088l0.001 0.002c0.386 0.453 0.591 0.875 0.22 0.886-0.345 0.010-0.759 0.627-0.858 0.783 0.004 0.015 0.008 0.026 0.012 0.038l-0.001-0.002s0.485-0.807 0.881-0.818 0.136-0.491-0.3-0.976z"></path>
<path fill="#ffd037" style="fill: var(--color17, #ffd037)" d="M34.765 27.035c0 0.101-0.011 0.183-0.025 0.183s-0.025-0.083-0.025-0.183 0.014-0.053 0.028-0.053 0.022-0.047 0.022 0.053z"></path>
<path fill="#ffd037" style="fill: var(--color17, #ffd037)" d="M34.906 27.156c-0.089 0.048-0.167 0.078-0.173 0.066s0.060-0.062 0.149-0.11 0.054-0.013 0.060 0 0.054-0.004-0.036 0.044z"></path>
<path fill="#2b5e69" style="fill: var(--color3, #2b5e69)" d="M33.193 26.669s-0.22 0.288 0.101 0.721 0.587 0.801 0.481 1.072c0 0-0.485-0.807-0.881-0.818s-0.134-0.49 0.299-0.975z"></path>
<path fill="#000" style="fill: var(--color10, #000)" opacity="0.1" d="M33.193 26.669c-0.018 0.026-0.034 0.056-0.045 0.088l-0.001 0.003c-0.385 0.453-0.59 0.875-0.22 0.886 0.345 0.010 0.761 0.627 0.858 0.783-0.004 0.014-0.008 0.026-0.013 0.037l0.001-0.002s-0.485-0.807-0.881-0.818-0.133-0.491 0.3-0.976z"></path>
<path fill="#ffd037" style="fill: var(--color17, #ffd037)" d="M32.785 27.035c0 0.101 0.012 0.183 0.026 0.183s0.025-0.082 0.025-0.183-0.014-0.053-0.028-0.053-0.023-0.047-0.023 0.053z"></path>
<path fill="#ffd037" style="fill: var(--color17, #ffd037)" d="M32.645 27.156c0.089 0.048 0.166 0.078 0.173 0.066s-0.060-0.062-0.149-0.11-0.054-0.013-0.061 0-0.052-0.004 0.036 0.044z"></path>
<path fill="#a8a8a8" style="fill: var(--color18, #a8a8a8)" d="M32.855 28.425s0.615-0.019 0.801-0.151 0.947-0.29 0.993-0.078 0.924 1.053 0.23 1.059-1.614-0.108-1.799-0.221-0.225-0.609-0.225-0.609z"></path>
<path fill="#000" style="fill: var(--color10, #000)" opacity="0.2" d="M34.891 29.181c-0.695 0.006-1.614-0.108-1.799-0.221-0.141-0.086-0.197-0.394-0.215-0.536h-0.021s0.040 0.496 0.224 0.609 1.104 0.227 1.799 0.221c0.2 0 0.27-0.073 0.266-0.179-0.028 0.064-0.105 0.105-0.254 0.106z"></path>
</symbol>
</defs></svg>